<?xml version="1.0" encoding="UTF-8" standalone="no"?>
<svg
   xmlns:dc="http://purl.org/dc/elements/1.1/"
   xmlns:cc="http://creativecommons.org/ns#"
   xmlns:rdf="http://www.w3.org/1999/02/22-rdf-syntax-ns#"
   xmlns:svg="http://www.w3.org/2000/svg"
   xmlns="http://www.w3.org/2000/svg"
   xmlns:sodipodi="http://sodipodi.sourceforge.net/DTD/sodipodi-0.dtd"
   xmlns:inkscape="http://www.inkscape.org/namespaces/inkscape"
   id="svg8"
   version="1.1"
   viewBox="0 0 27.308786 41.133884"
   height="41.133884mm"
   width="27.308786mm"
   inkscape:version="1.0 (4035a4fb49, 2020-05-01)"
   sodipodi:docname="logo_onlyicon.svg">
  <defs
     id="defs2" />
  <sodipodi:namedview
     id="base"
     pagecolor="#ffffff"
     bordercolor="#666666"
     borderopacity="1.0"
     inkscape:pageopacity="0.0"
     inkscape:pageshadow="2"
     inkscape:zoom="4"
     inkscape:cx="100.34291"
     inkscape:cy="61.544249"
     inkscape:document-units="mm"
     inkscape:current-layer="g952"
     inkscape:document-rotation="0"
     showgrid="false"
     inkscape:window-width="1920"
     inkscape:window-height="1017"
     inkscape:window-x="-8"
     inkscape:window-y="-8"
     inkscape:window-maximized="1" />
  <metadata
     id="metadata5">
    <rdf:RDF>
      <cc:Work
         rdf:about="">
        <dc:format>image/svg+xml</dc:format>
        <dc:type
           rdf:resource="http://purl.org/dc/dcmitype/StillImage" />
        <dc:title />
      </cc:Work>
    </rdf:RDF>
  </metadata>
  <g
     inkscape:label="Layer 1"
     inkscape:groupmode="layer"
     id="layer1"
     transform="translate(-82.495613,-53.257713)">
    <g
       id="g952"
       inkscape:label="globo">
      <path
         style="fill:none;stroke:#000000;stroke-width:1.3;stroke-linecap:round;stroke-linejoin:round;stroke-miterlimit:4;stroke-dasharray:none;stroke-opacity:1;paint-order:stroke fill markers;stop-color:#000000"
         d="m 95.77985,86.076303 c 0,0 2.138156,2.083092 0,4.187839 -2.138156,2.104747 0.120493,3.477455 0.120493,3.477455"
         id="path954"
         inkscape:label="cuerda"
         sodipodi:nodetypes="csc" />
      <path
         id="path847-1"
         style="display:inline;fill:#008000;stroke:none;stroke-width:0.600001;stroke-linecap:round;stroke-linejoin:round;stroke-miterlimit:40;stroke-dasharray:none;paint-order:stroke fill markers;stop-color:#000000"
         inkscape:transform-center-y="-0.8291948"
         d="m 98.244872,86.691175 h -4.189731 l 2.094865,-4.97517 z"
         inkscape:label="nudo" />
      <path
         sodipodi:nodetypes="sssss"
         d="m 109.8044,66.912104 c 0,7.541121 -8.49454,18.242271 -13.654397,18.242271 -5.159862,0 -13.654391,-10.70116 -13.65439,-18.242271 -1e-6,-7.541111 5.584111,-13.654391 13.65439,-13.654391 8.070277,0 13.654397,6.11327 13.654397,13.654391 z"
         style="fill:#00be00;fill-opacity:1;stroke:none;stroke-width:0.433501;stroke-linecap:round;stroke-linejoin:round;stroke-miterlimit:4;stroke-dasharray:none;paint-order:stroke fill markers;stop-color:#000000"
         id="path927"
         inkscape:label="cuerpo" />
      <g
         inkscape:label="AC"
         style="font-size:15.395px;line-height:1.25;font-family:'IBM 3270';-inkscape-font-specification:'IBM 3270, ';fill:#ffffff;stroke:#ffffff;stroke-width:0.5;stroke-miterlimit:4;stroke-dasharray:none;stroke-opacity:1"
         id="text984"
         aria-label="AC">
        <path
           id="path836"
           style="font-style:normal;font-variant:normal;font-weight:500;font-stretch:normal;font-family:'IBM 3270';-inkscape-font-specification:'IBM 3270 Medium';fill:#ffffff;stroke:#ffffff;stroke-width:0.5;stroke-miterlimit:4;stroke-dasharray:none;stroke-opacity:1"
           d="m 89.682907,69.993759 v 2.817285 h -0.908305 v -5.20351 q 0,-0.169345 0.138555,-0.3079 l 2.7711,-2.786495 q 0.12316,-0.138555 0.3079,-0.138555 0.21553,0 0.354085,0.138555 l 2.817285,2.80189 q 0.12316,0.12316 0.12316,0.323295 v 5.17272 h -0.9237 l 0.01539,-2.817285 z m 0.01539,-0.939095 h 4.664685 v -1.2316 l -2.355435,-2.34004 -2.30925,2.324645 z" />
        <path
           id="path838"
           style="font-style:normal;font-variant:normal;font-weight:500;font-stretch:normal;font-family:'IBM 3270';-inkscape-font-specification:'IBM 3270 Medium';fill:#ffffff;stroke:#ffffff;stroke-width:0.5;stroke-miterlimit:4;stroke-dasharray:none;stroke-opacity:1"
           d="m 103.52542,65.421444 -0.64659,0.64659 -0.81594,-0.785145 h -1.60108 l -2.524777,2.52478 v 1.554895 l 2.540177,2.509385 1.57029,0.01539 0.80054,-0.846725 0.67738,0.64659 -0.9391,0.98528 q -0.13855,0.138555 -0.33869,0.138555 h -1.95516 q -0.16935,0 -0.323297,-0.15395 l -2.817285,-2.7711 q -0.138555,-0.138555 -0.138555,-0.323295 v -1.93977 q 0,-0.200135 0.12316,-0.323295 l 2.817285,-2.80189 q 0.138552,-0.138555 0.323292,-0.138555 h 1.97056 q 0.20014,0 0.3233,0.12316 z" />
      </g>
    </g>
  </g>
</svg>
