<?xml version="1.0" encoding="UTF-8" standalone="no"?>
<svg
   xmlns:dc="http://purl.org/dc/elements/1.1/"
   xmlns:cc="http://creativecommons.org/ns#"
   xmlns:rdf="http://www.w3.org/1999/02/22-rdf-syntax-ns#"
   xmlns:svg="http://www.w3.org/2000/svg"
   xmlns="http://www.w3.org/2000/svg"
   xmlns:sodipodi="http://sodipodi.sourceforge.net/DTD/sodipodi-0.dtd"
   xmlns:inkscape="http://www.inkscape.org/namespaces/inkscape"
   id="svg8"
   version="1.1"
   viewBox="0 0 101.47502 41.133884"
   height="41.133884mm"
   width="101.47502mm"
   inkscape:version="1.0 (4035a4fb49, 2020-05-01)"
   sodipodi:docname="banner.svg">
  <defs
     id="defs2" />
  <sodipodi:namedview
     id="base"
     pagecolor="#ffffff"
     bordercolor="#666666"
     borderopacity="1.0"
     inkscape:pageopacity="0.0"
     inkscape:pageshadow="2"
     inkscape:zoom="2.8284271"
     inkscape:cx="200.48495"
     inkscape:cy="63.898147"
     inkscape:document-units="mm"
     inkscape:current-layer="layer1"
     inkscape:document-rotation="0"
     showgrid="false"
     inkscape:window-width="1920"
     inkscape:window-height="1017"
     inkscape:window-x="-8"
     inkscape:window-y="-8"
     inkscape:window-maximized="1" />
  <metadata
     id="metadata5">
    <rdf:RDF>
      <cc:Work
         rdf:about="">
        <dc:format>image/svg+xml</dc:format>
        <dc:type
           rdf:resource="http://purl.org/dc/dcmitype/StillImage" />
        <dc:title />
      </cc:Work>
    </rdf:RDF>
  </metadata>
  <g
     inkscape:label="Layer 1"
     inkscape:groupmode="layer"
     id="layer1"
     transform="translate(-82.495613,-53.257713)">
    <g
       id="g952"
       inkscape:label="globo">
      <path
         style="fill:none;stroke:#000000;stroke-width:1.3;stroke-linecap:round;stroke-linejoin:round;stroke-miterlimit:4;stroke-dasharray:none;stroke-opacity:1;paint-order:stroke fill markers;stop-color:#000000"
         d="m 95.77985,86.076303 c 0,0 2.138156,2.083092 0,4.187839 -2.138156,2.104747 0.120493,3.477455 0.120493,3.477455"
         id="path954"
         inkscape:label="cuerda"
         sodipodi:nodetypes="csc" />
      <path
         id="path847-1"
         style="display:inline;fill:#008000;stroke:none;stroke-width:0.600001;stroke-linecap:round;stroke-linejoin:round;stroke-miterlimit:40;stroke-dasharray:none;paint-order:stroke fill markers;stop-color:#000000"
         inkscape:transform-center-y="-0.8291948"
         d="m 98.244872,86.691175 h -4.189731 l 2.094865,-4.97517 z"
         inkscape:label="nudo" />
      <path
         sodipodi:nodetypes="sssss"
         d="m 109.8044,66.912104 c 0,7.541121 -8.49454,18.242271 -13.654397,18.242271 -5.159862,0 -13.654391,-10.70116 -13.65439,-18.242271 -1e-6,-7.541111 5.584111,-13.654391 13.65439,-13.654391 8.070277,0 13.654397,6.11327 13.654397,13.654391 z"
         style="fill:#00be00;fill-opacity:1;stroke:none;stroke-width:0.433501;stroke-linecap:round;stroke-linejoin:round;stroke-miterlimit:4;stroke-dasharray:none;paint-order:stroke fill markers;stop-color:#000000"
         id="path927"
         inkscape:label="cuerpo" />
      <g
         inkscape:label="AC"
         style="font-size:15.395px;line-height:1.25;font-family:'IBM 3270';-inkscape-font-specification:'IBM 3270, ';fill:#ffffff;stroke:#ffffff;stroke-width:0.5;stroke-miterlimit:4;stroke-dasharray:none;stroke-opacity:1"
         id="text984"
         aria-label="AC">
        <path
           id="path907"
           style="font-style:normal;font-variant:normal;font-weight:500;font-stretch:normal;font-family:'IBM 3270';-inkscape-font-specification:'IBM 3270 Medium';fill:#ffffff;stroke:#ffffff;stroke-width:0.5;stroke-miterlimit:4;stroke-dasharray:none;stroke-opacity:1"
           d="m 89.682907,69.993759 v 2.817285 h -0.908305 v -5.20351 q 0,-0.169345 0.138555,-0.3079 l 2.7711,-2.786495 q 0.12316,-0.138555 0.3079,-0.138555 0.21553,0 0.354085,0.138555 l 2.817285,2.80189 q 0.12316,0.12316 0.12316,0.323295 v 5.17272 h -0.9237 l 0.01539,-2.817285 z m 0.01539,-0.939095 h 4.664685 v -1.2316 l -2.355435,-2.34004 -2.30925,2.324645 z" />
        <path
           id="path909"
           style="font-style:normal;font-variant:normal;font-weight:500;font-stretch:normal;font-family:'IBM 3270';-inkscape-font-specification:'IBM 3270 Medium';fill:#ffffff;stroke:#ffffff;stroke-width:0.5;stroke-miterlimit:4;stroke-dasharray:none;stroke-opacity:1"
           d="m 103.52542,65.421444 -0.64659,0.64659 -0.81594,-0.785145 h -1.60108 l -2.524777,2.52478 v 1.554895 l 2.540177,2.509385 1.57029,0.01539 0.80054,-0.846725 0.67738,0.64659 -0.9391,0.98528 q -0.13855,0.138555 -0.33869,0.138555 h -1.95516 q -0.16935,0 -0.323297,-0.15395 l -2.817285,-2.7711 q -0.138555,-0.138555 -0.138555,-0.323295 v -1.93977 q 0,-0.200135 0.12316,-0.323295 l 2.817285,-2.80189 q 0.138552,-0.138555 0.323292,-0.138555 h 1.97056 q 0.20014,0 0.3233,0.12316 z" />
      </g>
    </g>
    <g
       id="g1080"
       inkscape:label="titulo"
       transform="matrix(1.7079515,0,0,1.7079515,-78.347137,-44.07826)">
      <g
         inkscape:label="uchile"
         style="font-size:8.77333px;line-height:0;font-family:Cornerstone;-inkscape-font-specification:Cornerstone;letter-spacing:3.0136px;opacity:0.996;stroke-width:0.328999"
         id="text1020"
         aria-label="UCHILE">
        <path
           id="path894"
           style="line-height:1.25;stroke-width:0.328999"
           d="m 115.76237,74.633844 q 0,1.893463 0,5.680388 0,0.265599 -0.17993,0.445521 -0.18848,0.188489 -0.44552,0.188489 -0.8482,0 -2.52747,0 -0.2656,0 -0.44552,-0.188489 -0.18849,-0.179922 -0.18849,-0.445521 0,-0.942447 0,-2.364686 0,-1.422239 0,-3.315702 0.41982,0 1.25945,0 0,1.67927 0,5.054946 0.42839,0 1.26802,0 0,-1.687838 0,-5.054946 0.41982,0 1.25946,0 z" />
        <path
           id="path896"
           style="line-height:1.25;stroke-width:0.328999"
           d="m 122.57146,76.527307 q 0,-0.214193 0,-0.634011 -0.41982,0 -1.26802,0 0,1.268021 0,3.795494 0.42839,0 1.26802,0 0,-0.214193 0,-0.634011 0.41982,0 1.25945,0 0,0.419818 0,1.259453 0,0.265599 -0.17992,0.445521 -0.18849,0.188489 -0.44552,0.188489 -0.8482,0 -2.52747,0 -0.2656,0 -0.44552,-0.188489 -0.18849,-0.179922 -0.18849,-0.445521 0,-0.63401 0,-1.90203 0,-0.52263 0,-1.302292 0,-0.796796 0,-1.850624 0,-0.257031 0.18849,-0.44552 0.17992,-0.179922 0.44552,-0.179922 0.83963,0 2.52747,0 0.25703,0 0.44552,0.179922 0.17992,0.188489 0.17992,0.44552 0,0.428385 0,1.268021 -0.41981,0 -1.25945,0 z" />
        <path
           id="path898"
           style="line-height:1.25;stroke-width:0.328999"
           d="m 130.64001,74.633844 q 0,0.625442 0,2.527473 -0.31701,0 -1.26802,0 0,-0.63401 0,-2.527473 -0.30844,0 -1.25946,0 0,0.625442 0,2.527473 0,0.308437 0,1.259452 0,0.317005 0,0.951016 0,0.63401 0,1.576457 0.41982,0 1.25946,0 0,-0.839635 0,-2.527473 0.42838,0 1.26802,0 0,0.839635 0,2.527473 0.41981,0 1.25945,0 0,-0.839635 0,-2.527473 0,-0.419817 0,-1.259452 0,-0.848203 0,-2.527473 -0.41982,0 -1.25945,0 z" />
        <path
           id="path900"
           style="line-height:1.25;stroke-width:0.328999"
           d="m 136.18108,74.633844 q 0.317,0 1.25945,0 0,1.182343 0,4.737941 0,0.394114 0,1.576457 -0.30843,0 -1.25945,0 0,-0.788229 0,-2.364686 0,-1.576458 0,-3.949712 z" />
        <path
           id="path902"
           style="line-height:1.25;stroke-width:0.328999"
           d="m 142.99017,79.68879 q 0,-1.268021 0,-5.054946 -0.30843,0 -1.25945,0 0,0.788229 0,2.364686 0,1.576458 0,3.949712 0.0771,0 0.31701,0 0.23989,0 0.94244,0 0.63401,0 2.52748,0 0,-0.317005 0,-1.259452 -0.83964,0 -2.52748,0 z" />
        <path
           inkscape:label="path904"
           id="path904"
           style="line-height:1.25;stroke-width:0.328999"
           d="m 153.58619,75.893296 q 0,-0.317005 0,-1.259452 -0.62544,0 -2.52747,0 -0.30844,0 -1.25945,0 0,0.317005 0,1.259452 0,0.317005 0,1.268021 0,0.308437 0,1.259452 0,0.317005 0,1.268021 0,0.205624 0,0.52263 0,0.317005 0,0.736822 0.41981,0 1.25945,0 0.8482,0 2.52747,0 0,-0.419817 0,-1.259452 -0.83963,0 -2.52747,0 0,-0.428386 0,-1.268021 0.63401,0 1.90203,0 0,-0.419817 0,-1.259452 -0.63401,0 -1.90203,0 0,-0.428386 0,-1.268021 0.8482,0 2.52747,0 z" />
      </g>
      <g
         inkscape:label="progcomp"
         style="font-size:6.14133px;line-height:1.25;font-family:Cornerstone;-inkscape-font-specification:Cornerstone;opacity:0.996;stroke-width:0.328999"
         id="text988"
         aria-label="PROGRAMACION
COMPETITIVA">
        <path
           id="path844"
           style="font-size:6.14133px;stroke-width:0.328999"
           d="m 114.62629,59.7217 q 0,0.593741 0,1.76923 0,0.185919 -0.12595,0.317862 -0.13194,0.125945 -0.31186,0.125945 -0.44381,0 -1.33142,0 0,0.587745 0,1.769231 -0.29387,0 -0.88162,0 0,-0.293872 0,-0.737679 0,-0.43781 0,-1.031552 0,-0.293872 0,-0.881616 0,-0.29987 0,-0.887614 0,-0.293873 0,-0.881617 0.29387,0 0.88162,0 0.4438,0 1.33142,0 0.17992,0 0.31186,0.125945 0.12595,0.131943 0.12595,0.311865 z m -1.76923,1.331421 q 0.29987,0 0.88761,0 0,-0.05398 0,-0.155933 0,-0.245893 0,-0.731681 -0.29387,0 -0.88761,0 0,0.293872 0,0.887614 z" />
        <path
           id="path846"
           style="font-size:6.14133px;stroke-width:0.328999"
           d="m 117.72694,61.49093 q 0.17992,0 0.31186,0.131943 0.12595,0.125945 0.12595,0.311864 0,0.587745 0,1.769231 -0.29387,0 -0.88162,0 0,-0.587744 0,-1.769231 -0.29387,0 -0.88761,0 0,0.587745 0,1.769231 -0.29387,0 -0.88162,0 0,-0.587744 0,-1.769231 0,-0.293872 0,-0.881616 0,-0.293873 0,-0.73768 0,-0.443807 0,-1.031551 0.29387,0 0.88162,0 0.44381,0 1.33142,0 0.17992,0 0.31186,0.125945 0.12595,0.131943 0.12595,0.311865 0,0.443807 0,1.331421 0,0.179921 -0.12595,0.311864 -0.13194,0.125945 -0.31186,0.125945 z m -0.44381,-0.437809 q 0,-0.05398 0,-0.155933 0,-0.245893 0,-0.731681 -0.29387,0 -0.88761,0 0,0.293872 0,0.887614 0.29987,0 0.88761,0 z" />
        <path
           id="path848"
           style="font-size:6.14133px;stroke-width:0.328999"
           d="m 121.70321,59.7217 q 0,1.181486 0,3.538461 0,0.185919 -0.12594,0.311864 -0.13195,0.131943 -0.31187,0.131943 -0.59374,0 -1.76923,0 -0.18592,0 -0.31186,-0.131943 -0.13195,-0.125945 -0.13195,-0.311864 0,-0.443807 0,-1.331421 0,-0.365841 0,-0.911604 0,-0.557757 0,-1.295436 0,-0.179922 0.13195,-0.311865 0.12594,-0.125945 0.31186,-0.125945 0.58775,0 1.76923,0 0.17992,0 0.31187,0.125945 0.12594,0.131943 0.12594,0.311865 z m -1.76923,3.100651 q 0.29987,0 0.88761,0 0,-0.05997 0,-0.173924 0,-0.82764 0,-2.48292 -0.29387,0 -0.88761,0 0,0.443807 0,1.325423 0,0.443807 0,1.331421 z" />
        <path
           id="path850"
           style="font-size:6.14133px;stroke-width:0.328999"
           d="m 124.36006,60.609314 q 0,-0.149935 0,-0.443807 -0.29388,0 -0.88762,0 0,0.887614 0,2.656844 0.29987,0 0.88762,0 0,-0.299869 0,-0.887614 -0.14994,0 -0.44381,0 0,-0.293872 0,-0.881616 0.44381,0 1.32542,0 0,0.293872 0,0.881616 0,0.443807 0,1.325424 0,0.185919 -0.12594,0.311864 -0.13195,0.131943 -0.31187,0.131943 -0.59374,0 -1.76923,0 -0.18592,0 -0.31186,-0.131943 -0.13194,-0.125945 -0.13194,-0.311864 0,-0.443807 0,-1.331421 0,-0.365841 0,-0.911604 0,-0.557757 0,-1.295436 0,-0.179922 0.13194,-0.311865 0.12594,-0.125945 0.31186,-0.125945 0.58775,0 1.76923,0 0.17992,0 0.31187,0.125945 0.12594,0.131943 0.12594,0.311865 0,0.299869 0,0.887614 -0.29387,0 -0.88161,0 z" />
        <path
           id="path852"
           style="font-size:6.14133px;stroke-width:0.328999"
           d="m 128.34232,61.49093 q 0.17993,0 0.31187,0.131943 0.12594,0.125945 0.12594,0.311864 0,0.587745 0,1.769231 -0.29387,0 -0.88161,0 0,-0.587744 0,-1.769231 -0.29387,0 -0.88762,0 0,0.587745 0,1.769231 -0.29387,0 -0.88161,0 0,-0.587744 0,-1.769231 0,-0.293872 0,-0.881616 0,-0.293873 0,-0.73768 0,-0.443807 0,-1.031551 0.29387,0 0.88161,0 0.44381,0 1.33142,0 0.17993,0 0.31187,0.125945 0.12594,0.131943 0.12594,0.311865 0,0.443807 0,1.331421 0,0.179921 -0.12594,0.311864 -0.13194,0.125945 -0.31187,0.125945 z m -0.4438,-0.437809 q 0,-0.05398 0,-0.155933 0,-0.245893 0,-0.731681 -0.29387,0 -0.88762,0 0,0.293872 0,0.887614 0.29987,0 0.88762,0 z" />
        <path
           id="path854"
           style="font-size:6.14133px;stroke-width:0.328999"
           d="m 132.31859,63.703968 q -0.29387,0 -0.88161,0 0,-0.587744 0,-1.769231 -0.29387,0 -0.88762,0 0,0.587745 0,1.769231 -0.29387,0 -0.88161,0 0,-0.497784 0,-1.499348 0,-0.41382 0,-1.031552 0,-0.623728 0,-1.451368 0,-0.179922 0.13194,-0.311865 0.12595,-0.125945 0.31186,-0.125945 0.58775,0 1.76924,0 0.17992,0 0.31186,0.125945 0.12594,0.131943 0.12594,0.311865 0,1.331421 0,3.982268 z m -0.88161,-2.650847 q 0,-0.05398 0,-0.155933 0,-0.245893 0,-0.731681 -0.29387,0 -0.88762,0 0,0.293872 0,0.887614 0.29987,0 0.88762,0 z" />
        <path
           id="path856"
           style="font-size:6.14133px;stroke-width:0.328999"
           d="m 137.62629,59.7217 q 0,1.331421 0,3.982268 -0.29387,0 -0.88162,0 0,-1.181486 0,-3.538461 -0.29387,0 -0.88761,0 0,1.181486 0,3.538461 -0.29388,0 -0.88162,0 0,-1.181486 0,-3.538461 -0.29387,0 -0.88761,0 0,1.181486 0,3.538461 -0.29388,0 -0.88162,0 0,-0.497784 0,-1.499348 0,-0.41382 0,-1.031552 0,-0.623728 0,-1.451368 0,-0.179922 0.13194,-0.311865 0.12595,-0.125945 0.31187,-0.125945 0.43781,0 1.32542,0 0.18592,0 0.31186,0.125945 0.13195,0.131943 0.13195,0.311865 0,-0.179922 0.12594,-0.311865 0.13194,-0.125945 0.31187,-0.125945 0.4438,0 1.33142,0 0.17992,0 0.31186,0.125945 0.12595,0.131943 0.12595,0.311865 z" />
        <path
           id="path858"
           style="font-size:6.14133px;stroke-width:0.328999"
           d="m 141.17075,63.703968 q -0.29388,0 -0.88162,0 0,-0.587744 0,-1.769231 -0.29387,0 -0.88761,0 0,0.587745 0,1.769231 -0.29388,0 -0.88162,0 0,-0.497784 0,-1.499348 0,-0.41382 0,-1.031552 0,-0.623728 0,-1.451368 0,-0.179922 0.13194,-0.311865 0.12595,-0.125945 0.31187,-0.125945 0.58774,0 1.76923,0 0.17992,0 0.31186,0.125945 0.12595,0.131943 0.12595,0.311865 0,1.331421 0,3.982268 z m -0.88162,-2.650847 q 0,-0.05398 0,-0.155933 0,-0.245893 0,-0.731681 -0.29387,0 -0.88761,0 0,0.293872 0,0.887614 0.29987,0 0.88761,0 z" />
        <path
           id="path860"
           style="font-size:6.14133px;stroke-width:0.328999"
           d="m 143.82759,60.609314 q 0,-0.149935 0,-0.443807 -0.29387,0 -0.88761,0 0,0.887614 0,2.656844 0.29987,0 0.88761,0 0,-0.149934 0,-0.443807 0.29387,0 0.88162,0 0,0.293873 0,0.881617 0,0.185919 -0.12595,0.311864 -0.13194,0.131943 -0.31186,0.131943 -0.59374,0 -1.76923,0 -0.18592,0 -0.31187,-0.131943 -0.13194,-0.125945 -0.13194,-0.311864 0,-0.443807 0,-1.331421 0,-0.365841 0,-0.911604 0,-0.557757 0,-1.295436 0,-0.179922 0.13194,-0.311865 0.12595,-0.125945 0.31187,-0.125945 0.58774,0 1.76923,0 0.17992,0 0.31186,0.125945 0.12595,0.131943 0.12595,0.311865 0,0.299869 0,0.887614 -0.29387,0 -0.88162,0 z" />
        <path
           id="path862"
           style="font-size:6.14133px;stroke-width:0.328999"
           d="m 145.59682,59.28389 q 0.2219,0 0.88162,0 0,0.82764 0,3.316558 0,0.27588 0,1.10352 -0.21591,0 -0.88162,0 0,-0.55176 0,-1.65528 0,-1.10352 0,-2.764798 z" />
        <path
           id="path864"
           style="font-size:6.14133px;stroke-width:0.328999"
           d="m 150.0229,59.7217 q 0,1.181486 0,3.538461 0,0.185919 -0.12595,0.311864 -0.13194,0.131943 -0.31186,0.131943 -0.59374,0 -1.76923,0 -0.18592,0 -0.31187,-0.131943 -0.13194,-0.125945 -0.13194,-0.311864 0,-0.443807 0,-1.331421 0,-0.365841 0,-0.911604 0,-0.557757 0,-1.295436 0,-0.179922 0.13194,-0.311865 0.12595,-0.125945 0.31187,-0.125945 0.58774,0 1.76923,0 0.17992,0 0.31186,0.125945 0.12595,0.131943 0.12595,0.311865 z m -1.76923,3.100651 q 0.29987,0 0.88761,0 0,-0.05997 0,-0.173924 0,-0.82764 0,-2.48292 -0.29387,0 -0.88761,0 0,0.443807 0,1.325423 0,0.443807 0,1.331421 z" />
        <path
           id="path866"
           style="font-size:6.14133px;stroke-width:0.328999"
           d="m 153.56136,59.7217 q 0,1.331421 0,3.982268 -0.29387,0 -0.88162,0 0,-1.181486 0,-3.538461 -0.29387,0 -0.88761,0 0,1.181486 0,3.538461 -0.29387,0 -0.88162,0 0,-0.737679 0,-1.841199 0,-1.103521 0,-2.578879 0.29387,0 0.88162,0 0.4438,0 1.33142,0 0.17992,0 0.31186,0.125945 0.12595,0.131943 0.12595,0.311865 z" />
        <path
           id="path868"
           style="font-size:6.14133px;letter-spacing:0.489479px;stroke-width:0.328999"
           d="m 113.74467,68.285976 q 0,-0.149935 0,-0.443807 -0.29387,0 -0.88761,0 0,0.887614 0,2.656845 0.29987,0 0.88761,0 0,-0.149935 0,-0.443807 0.29387,0 0.88162,0 0,0.293872 0,0.881616 0,0.185919 -0.12595,0.311865 -0.13194,0.131942 -0.31186,0.131942 -0.59374,0 -1.76923,0 -0.18592,0 -0.31187,-0.131942 -0.13194,-0.125946 -0.13194,-0.311865 0,-0.443807 0,-1.331421 0,-0.365841 0,-0.911604 0,-0.557757 0,-1.295436 0,-0.179922 0.13194,-0.311865 0.12595,-0.125945 0.31187,-0.125945 0.58774,0 1.76923,0 0.17992,0 0.31186,0.125945 0.12595,0.131943 0.12595,0.311865 0,0.299869 0,0.887614 -0.29387,0 -0.88162,0 z" />
        <path
           id="path870"
           style="font-size:6.14133px;letter-spacing:0.489479px;stroke-width:0.328999"
           d="m 118.65423,67.398362 q 0,1.181486 0,3.538461 0,0.185919 -0.12595,0.311865 -0.13194,0.131942 -0.31186,0.131942 -0.59374,0 -1.76923,0 -0.18592,0 -0.31187,-0.131942 -0.13194,-0.125946 -0.13194,-0.311865 0,-0.443807 0,-1.331421 0,-0.365841 0,-0.911604 0,-0.557757 0,-1.295436 0,-0.179922 0.13194,-0.311865 0.12595,-0.125945 0.31187,-0.125945 0.58774,0 1.76923,0 0.17992,0 0.31186,0.125945 0.12595,0.131943 0.12595,0.311865 z m -1.76923,3.100652 q 0.29987,0 0.88761,0 0,-0.05997 0,-0.173925 0,-0.82764 0,-2.48292 -0.29387,0 -0.88761,0 0,0.443807 0,1.325423 0,0.443808 0,1.331422 z" />
        <path
           id="path872"
           style="font-size:6.14133px;letter-spacing:0.489479px;stroke-width:0.328999"
           d="m 124.4514,67.398362 q 0,1.331421 0,3.982268 -0.29387,0 -0.88162,0 0,-1.181486 0,-3.538461 -0.29387,0 -0.88761,0 0,1.181486 0,3.538461 -0.29387,0 -0.88162,0 0,-1.181486 0,-3.538461 -0.29387,0 -0.88761,0 0,1.181486 0,3.538461 -0.29387,0 -0.88162,0 0,-0.497783 0,-1.499348 0,-0.41382 0,-1.031551 0,-0.623729 0,-1.451369 0,-0.179922 0.13194,-0.311865 0.12595,-0.125945 0.31187,-0.125945 0.43781,0 1.32542,0 0.18592,0 0.31187,0.125945 0.13194,0.131943 0.13194,0.311865 0,-0.179922 0.12594,-0.311865 0.13195,-0.125945 0.31187,-0.125945 0.44381,0 1.33142,0 0.17992,0 0.31186,0.125945 0.12595,0.131943 0.12595,0.311865 z" />
        <path
           id="path874"
           style="font-size:6.14133px;letter-spacing:0.489479px;stroke-width:0.328999"
           d="m 128.48534,67.398362 q 0,0.593742 0,1.76923 0,0.18592 -0.12595,0.317862 -0.13194,0.125946 -0.31186,0.125946 -0.44381,0 -1.33142,0 0,0.587744 0,1.76923 -0.29387,0 -0.88162,0 0,-0.293872 0,-0.737679 0,-0.43781 0,-1.031551 0,-0.293873 0,-0.881617 0,-0.29987 0,-0.887614 0,-0.293872 0,-0.881617 0.29387,0 0.88162,0 0.4438,0 1.33142,0 0.17992,0 0.31186,0.125945 0.12595,0.131943 0.12595,0.311865 z m -1.76923,1.331421 q 0.29987,0 0.88761,0 0,-0.05398 0,-0.155932 0,-0.245893 0,-0.731682 -0.29387,0 -0.88761,0 0,0.293872 0,0.887614 z" />
        <path
           id="path876"
           style="font-size:6.14133px;letter-spacing:0.489479px;stroke-width:0.328999"
           d="m 132.51328,67.842169 q 0,-0.221904 0,-0.881617 -0.43781,0 -1.76923,0 -0.21591,0 -0.88162,0 0,0.221904 0,0.881617 0,0.221903 0,0.887614 0,0.215906 0,0.881617 0,0.221903 0,0.887614 0,0.143937 0,0.365841 0,0.221903 0,0.515775 0.29387,0 0.88162,0 0.59374,0 1.76923,0 0,-0.293872 0,-0.881616 -0.58775,0 -1.76923,0 0,-0.29987 0,-0.887614 0.4438,0 1.33142,0 0,-0.293873 0,-0.881617 -0.44381,0 -1.33142,0 0,-0.29987 0,-0.887614 0.59374,0 1.76923,0 z" />
        <path
           id="path878"
           style="font-size:6.14133px;letter-spacing:0.489479px;stroke-width:0.328999"
           d="m 136.54122,66.960552 q -0.65971,0 -2.65085,0 0,0.107953 0,0.329857 0,0.221903 0,0.55176 0.2219,0 0.88162,0 0,0.887614 0,3.538461 0.2219,0 0.88761,0 0,-0.881616 0,-3.538461 0.22191,0 0.88162,0 0,-0.293872 0,-0.881617 z" />
        <path
           id="path880"
           style="font-size:6.14133px;letter-spacing:0.489479px;stroke-width:0.328999"
           d="m 137.91831,66.960552 q 0.22191,0 0.88162,0 0,0.82764 0,3.316558 0,0.27588 0,1.10352 -0.21591,0 -0.88162,0 0,-0.55176 0,-1.65528 0,-1.10352 0,-2.764798 z" />
        <path
           id="path882"
           style="font-size:6.14133px;letter-spacing:0.489479px;stroke-width:0.328999"
           d="m 142.83387,66.960552 q -0.65972,0 -2.65085,0 0,0.107953 0,0.329857 0,0.221903 0,0.55176 0.2219,0 0.88162,0 0,0.887614 0,3.538461 0.2219,0 0.88761,0 0,-0.881616 0,-3.538461 0.2219,0 0.88162,0 0,-0.293872 0,-0.881617 z" />
        <path
           id="path884"
           style="font-size:6.14133px;letter-spacing:0.489479px;stroke-width:0.328999"
           d="m 144.21096,66.960552 q 0.2219,0 0.88162,0 0,0.82764 0,3.316558 0,0.27588 0,1.10352 -0.21591,0 -0.88162,0 0,-0.55176 0,-1.65528 0,-1.10352 0,-2.764798 z" />
        <path
           id="path886"
           style="font-size:6.14133px;letter-spacing:0.489479px;stroke-width:0.328999"
           d="m 146.35572,66.960552 q 0.24589,0 0.98957,0 0.16792,0.797653 0.66571,3.202608 0.16793,-0.797654 0.66571,-3.202608 0.24589,0 0.98957,0 -0.29987,1.10352 -1.21147,4.420078 -0.22191,0 -0.88762,0 -0.29987,-1.10352 -1.21147,-4.420078 z" />
        <path
           id="path888"
           style="font-size:6.14133px;letter-spacing:0.489479px;stroke-width:0.328999"
           d="m 153.57427,71.38063 q -0.29387,0 -0.88162,0 0,-0.587744 0,-1.76923 -0.29387,0 -0.88761,0 0,0.587744 0,1.76923 -0.29387,0 -0.88162,0 0,-0.497783 0,-1.499348 0,-0.41382 0,-1.031551 0,-0.623729 0,-1.451369 0,-0.179922 0.13195,-0.311865 0.12594,-0.125945 0.31186,-0.125945 0.58775,0 1.76923,0 0.17992,0 0.31187,0.125945 0.12594,0.131943 0.12594,0.311865 0,1.331421 0,3.982268 z m -0.88162,-2.650847 q 0,-0.05398 0,-0.155932 0,-0.245893 0,-0.731682 -0.29387,0 -0.88761,0 0,0.293872 0,0.887614 0.29987,0 0.88761,0 z" />
      </g>
      <g
         inkscape:transform-center-y="-0.67085213"
         inkscape:transform-center-x="-0.22536225"
         inkscape:label="tilde"
         style="font-size:4.39954px;line-height:1.25;font-family:Cornerstone;-inkscape-font-specification:Cornerstone;opacity:0.996;stroke-width:0.183314"
         id="text1053"
         transform="rotate(45)"
         aria-label="'">
        <path
           id="path891"
           style="stroke-width:0.183314"
           d="m 145.92953,-65.013424 q 0.15897,0 0.63158,0 0,0.313639 0,1.267446 -0.15467,0 -0.63158,0 0,-0.158968 0,-0.476904 0,-0.313639 0,-0.790542 z" />
      </g>
    </g>
  </g>
</svg>
