<?xml version="1.0" encoding="UTF-8" standalone="no"?>
<!-- Created with Inkscape (http://www.inkscape.org/) -->

<svg
   width="46.347286mm"
   height="43.593979mm"
   viewBox="0 0 46.347286 43.593979"
   version="1.1"
   id="svg5"
   inkscape:version="1.2.1 (9c6d41e410, 2022-07-14)"
   sodipodi:docname="ciclo_euleriano.svg"
   xmlns:inkscape="http://www.inkscape.org/namespaces/inkscape"
   xmlns:sodipodi="http://sodipodi.sourceforge.net/DTD/sodipodi-0.dtd"
   xmlns="http://www.w3.org/2000/svg"
   xmlns:svg="http://www.w3.org/2000/svg">
  <sodipodi:namedview
     id="namedview7"
     pagecolor="#ffffff"
     bordercolor="#000000"
     borderopacity="0.25"
     inkscape:showpageshadow="2"
     inkscape:pageopacity="0.0"
     inkscape:pagecheckerboard="0"
     inkscape:deskcolor="#d1d1d1"
     inkscape:document-units="mm"
     showgrid="false"
     inkscape:zoom="4"
     inkscape:cx="134.375"
     inkscape:cy="92"
     inkscape:window-width="1920"
     inkscape:window-height="1017"
     inkscape:window-x="1912"
     inkscape:window-y="-8"
     inkscape:window-maximized="1"
     inkscape:current-layer="layer1" />
  <defs
     id="defs2">
    <marker
       style="overflow:visible"
       id="Dot"
       refX="0"
       refY="0"
       orient="auto"
       inkscape:stockid="Dot"
       markerWidth="5.6666665"
       markerHeight="5.6666665"
       viewBox="0 0 5.6666667 5.6666667"
       inkscape:isstock="true"
       inkscape:collect="always"
       preserveAspectRatio="xMidYMid">
      <path
         transform="scale(0.5)"
         style="fill:context-stroke;fill-rule:evenodd;stroke:context-stroke;stroke-width:1pt"
         d="M 5,0 C 5,2.76 2.76,5 0,5 -2.76,5 -5,2.76 -5,0 c 0,-2.76 2.3,-5 5,-5 2.76,0 5,2.24 5,5 z"
         id="Dot1"
         sodipodi:nodetypes="sssss" />
    </marker>
  </defs>
  <g
     inkscape:label="Layer 1"
     inkscape:groupmode="layer"
     id="layer1"
     transform="translate(-33.021152,-39.654974)">
    <path
       style="fill:none;stroke:#000000;stroke-width:0.25;stroke-linejoin:bevel;stroke-dasharray:none;stroke-opacity:1;marker-mid:url(#Dot);marker-end:url(#Dot)"
       d="M 44.159534,43.714249 33.757777,56.896671 47.764103,76.052382 V 57.308624 L 59.195735,82.540605 78.660408,52.159237 H 63.315244 l 6.81072,-11.796511 -18.036377,8.294931 z"
       id="path1996" />
    <path
       style="fill:none;stroke:#000000;stroke-width:0.25;stroke-linejoin:bevel;stroke-dasharray:none;stroke-opacity:1"
       d="m 33.709676,56.774193 14.01613,0.532257 4.524195,-8.516128 z"
       id="path2188" />
    <path
       style="fill:none;stroke:#000000;stroke-width:0.25;stroke-linejoin:bevel;stroke-dasharray:none;stroke-opacity:1"
       d="M 63.338709,52.33871 59.080645,82.766129"
       id="path2190" />
    <path
       style="fill:none;stroke:#000000;stroke-width:0.25;stroke-linejoin:bevel;stroke-dasharray:none;stroke-opacity:1"
       d="M 59.258064,82.499998 52.072579,48.612903"
       id="path2194" />
    <path
       style="fill:none;stroke:#000000;stroke-width:0.25;stroke-linejoin:bevel;stroke-dasharray:none;stroke-opacity:1"
       d="M 51.89516,48.879032 63.25,52.072579"
       id="path2196" />
    <path
       style="fill:none;stroke:#000000;stroke-width:0.25;stroke-linejoin:bevel;stroke-dasharray:none;stroke-opacity:1;marker-mid:url(#Dot);marker-end:url(#Dot)"
       d="m 34.423375,68.053584 -0.07382,-0.184379"
       id="path2198"
       sodipodi:nodetypes="cc" />
    <text
       xml:space="preserve"
       style="font-size:3.175px;fill:none;stroke:#000000;stroke-width:0.25;stroke-linejoin:bevel;stroke-dasharray:none;stroke-opacity:1"
       x="19.696344"
       y="76.652649"
       id="text3900"><tspan
         sodipodi:role="line"
         id="tspan3898"
         style="stroke-width:0.25"
         x="19.696344"
         y="76.652649" /></text>
    <g
       aria-label="1 2 3 4 5 6
7 8 9
10
11
12
13  14  15"
       id="text3248"
       style="font-size:2.28987px;fill:#e30303;stroke-width:0.144244;stroke-linejoin:bevel">
      <path
         d="m 39.852223,63.84099 0.35493,-0.105334 v 1.392241 h 0.194639 v -1.625808 l -0.549569,0.137392 z"
         style="font-family:Jost;-inkscape-font-specification:Jost"
         id="path3366" />
      <path
         d="m 46.296538,66.531062 h 1.131196 v -0.18319 h -0.730469 l 0.510641,-0.5198 q 0.09389,-0.09617 0.153422,-0.217538 0.05954,-0.121363 0.05954,-0.245016 0,-0.07328 -0.02977,-0.153421 -0.02977,-0.08015 -0.0916,-0.148842 -0.06183,-0.07099 -0.158001,-0.114493 -0.09617,-0.0458 -0.228987,-0.0458 -0.16487,0 -0.283944,0.07328 -0.116783,0.07099 -0.17861,0.201509 -0.06183,0.128232 -0.06183,0.299973 h 0.194639 q 0,-0.121364 0.03893,-0.208379 0.03893,-0.0893 0.112203,-0.135102 0.07557,-0.04809 0.17861,-0.04809 0.07328,0 0.130523,0.02519 0.05725,0.02519 0.09617,0.06641 0.04122,0.04122 0.06183,0.09159 0.02061,0.05038 0.02061,0.103045 0,0.06412 -0.02061,0.123653 -0.01832,0.05725 -0.05725,0.114493 -0.03664,0.05496 -0.0893,0.112204 z"
         style="font-family:Jost;-inkscape-font-specification:Jost"
         id="path3368" />
      <path
         d="m 52.094026,69.389286 q 0.155711,0 0.272494,-0.05496 0.116784,-0.05496 0.18319,-0.148842 0.06641,-0.09388 0.06641,-0.206088 0,-0.114494 -0.05496,-0.210668 -0.05267,-0.09618 -0.153421,-0.155711 -0.09847,-0.05954 -0.235857,-0.05954 -0.130522,0 -0.233567,0.05496 -0.100754,0.05267 -0.16029,0.146552 -0.05725,0.09388 -0.05725,0.219827 h 0.185479 q 0,-0.105334 0.07786,-0.17403 0.07785,-0.07099 0.190059,-0.07099 0.08015,0 0.132813,0.03206 0.05496,0.03206 0.08244,0.09159 0.02748,0.05725 0.02748,0.132812 0,0.05725 -0.0229,0.107624 -0.02061,0.05038 -0.06183,0.0893 -0.04122,0.03664 -0.100754,0.05954 -0.05954,0.02061 -0.137392,0.02061 z m 0.0687,0.812903 q 0.144262,0 0.256465,-0.05496 0.112204,-0.05496 0.17632,-0.155712 0.06641,-0.100754 0.06641,-0.235856 0,-0.119073 -0.0458,-0.203799 -0.04351,-0.08472 -0.123653,-0.137392 -0.07786,-0.05496 -0.1809,-0.08015 -0.100754,-0.02519 -0.217537,-0.02519 v 0.125943 q 0.07786,0 0.144261,0.01832 0.06641,0.01832 0.116784,0.05725 0.05038,0.03664 0.07785,0.09388 0.02977,0.05496 0.02977,0.128233 0,0.08701 -0.03664,0.151132 -0.03664,0.06412 -0.105334,0.100754 -0.06641,0.03435 -0.158001,0.03435 -0.0916,0 -0.162581,-0.03435 -0.07099,-0.03435 -0.112204,-0.09389 -0.03893,-0.05954 -0.03893,-0.135102 h -0.196929 q 0,0.09388 0.03664,0.17632 0.03664,0.08014 0.103044,0.141972 0.06641,0.05954 0.160291,0.09388 0.09388,0.03435 0.210668,0.03435 z"
         style="font-family:Jost;-inkscape-font-specification:Jost"
         id="path3370" />
      <path
         d="m 61.874689,64.997492 h 1.220501 v -0.17174 h -0.327452 -0.03893 -0.53354 l 0.453394,-0.677802 v 0.741918 0.02519 0.403017 h 0.194639 v -1.602909 h -0.08014 z"
         style="font-family:Jost;-inkscape-font-specification:Jost"
         id="path3372" />
      <path
         d="m 70.937717,51.363799 q 0,-0.160291 -0.06183,-0.281654 -0.06183,-0.121363 -0.17174,-0.19006 -0.107624,-0.0687 -0.245016,-0.0687 -0.05954,0 -0.121363,0.01603 -0.05954,0.01374 -0.116784,0.04351 l 0.107624,-0.423626 h 0.604526 v -0.17174 h -0.755657 l -0.210668,0.854121 q 0.08244,-0.05725 0.144262,-0.08702 0.06412,-0.03206 0.125942,-0.04351 0.06412,-0.01374 0.139683,-0.01374 0.103044,0 0.183189,0.0458 0.08244,0.0458 0.128233,0.128233 0.04809,0.08243 0.04809,0.192349 0,0.109913 -0.04351,0.192349 -0.04122,0.08243 -0.121363,0.128232 -0.08015,0.0458 -0.194639,0.0458 -0.08702,0 -0.167161,-0.03664 -0.08014,-0.03893 -0.141972,-0.09846 -0.05954,-0.06183 -0.09617,-0.130523 l -0.164871,0.112204 q 0.05267,0.09159 0.128233,0.16945 0.07785,0.07557 0.185479,0.121363 0.109914,0.0458 0.256466,0.0458 0.116783,0 0.217537,-0.03435 0.100754,-0.03435 0.17861,-0.103044 0.07786,-0.0687 0.121363,-0.17174 0.04351,-0.103044 0.04351,-0.240436 z"
         style="font-family:Jost;-inkscape-font-specification:Jost"
         id="path3374" />
      <path
         d="m 70.561034,66.90807 q 0,-0.109914 0.0458,-0.194639 0.04809,-0.08702 0.128232,-0.135103 0.08244,-0.04809 0.18548,-0.04809 0.103044,0 0.18319,0.04809 0.08243,0.04809 0.128232,0.135103 0.04809,0.08472 0.04809,0.194639 0,0.109913 -0.04809,0.194639 -0.0458,0.08243 -0.128232,0.130522 -0.08015,0.04809 -0.18319,0.04809 -0.103044,0 -0.18548,-0.04809 -0.08015,-0.04809 -0.128232,-0.130522 -0.0458,-0.08473 -0.0458,-0.194639 z m 0.455684,-1.076239 -0.540409,0.744208 q -0.0458,0.06412 -0.07328,0.148841 -0.02748,0.08472 -0.02748,0.18319 0,0.16487 0.07099,0.288523 0.07328,0.123653 0.196929,0.192349 0.123653,0.0687 0.277074,0.0687 0.155711,0 0.277074,-0.0687 0.123653,-0.0687 0.194639,-0.192349 0.07328,-0.123653 0.07328,-0.288523 0,-0.109914 -0.03664,-0.203799 -0.03664,-0.09617 -0.103044,-0.16716 -0.06412,-0.07099 -0.151131,-0.109914 -0.08473,-0.03893 -0.18319,-0.03893 -0.07786,0 -0.139682,0.01832 -0.05954,0.01832 -0.105334,0.07557 l 0.01374,0.01145 0.501482,-0.661772 z"
         style="font-family:Jost;-inkscape-font-specification:Jost"
         id="path3376" />
      <path
         d="m 55.32702,60.848692 h 0.831223 l -0.680091,1.419719 h 0.203798 l 0.767107,-1.602909 H 55.32702 Z"
         style="font-family:Jost;-inkscape-font-specification:Jost"
         id="path3378" />
      <path
         d="m 59.248884,43.457698 q 0,0.09388 0.03206,0.169451 0.03206,0.07328 0.0893,0.125943 0.05954,0.05267 0.139682,0.08015 0.08244,0.02748 0.1809,0.02748 0.09846,0 0.17861,-0.02748 0.08244,-0.02748 0.139682,-0.08015 0.05954,-0.05267 0.09159,-0.125943 0.03206,-0.07557 0.03206,-0.169451 0,-0.114493 -0.05954,-0.206088 -0.05725,-0.09389 -0.158001,-0.148842 -0.09846,-0.05496 -0.224407,-0.05496 -0.125943,0 -0.226697,0.05496 -0.09847,0.05496 -0.158001,0.148842 -0.05725,0.09159 -0.05725,0.206088 z m 0.185479,0.0229 q 0,-0.07557 0.03206,-0.135102 0.03435,-0.05954 0.09159,-0.0916 0.05954,-0.03435 0.132813,-0.03435 0.07557,0 0.132812,0.03435 0.05725,0.03206 0.0893,0.0916 0.03435,0.05954 0.03435,0.135102 0,0.07557 -0.03664,0.132812 -0.03435,0.05725 -0.09388,0.08931 -0.05725,0.03206 -0.125943,0.03206 -0.0687,0 -0.128233,-0.03206 -0.05725,-0.03206 -0.09389,-0.08931 -0.03435,-0.05725 -0.03435,-0.132812 z m -0.242726,0.757947 q 0,0.09389 0.03664,0.17632 0.03893,0.08244 0.105334,0.146552 0.0687,0.06412 0.158001,0.100754 0.0916,0.03435 0.199219,0.03435 0.107624,0 0.196929,-0.03435 0.09159,-0.03664 0.158001,-0.100754 0.0687,-0.06412 0.105334,-0.146552 0.03893,-0.08243 0.03893,-0.17632 0,-0.109914 -0.04122,-0.194639 -0.03893,-0.08702 -0.109914,-0.144262 -0.0687,-0.05954 -0.160291,-0.08931 -0.08931,-0.02977 -0.187769,-0.02977 -0.09846,0 -0.190059,0.02977 -0.0893,0.02977 -0.160291,0.08931 -0.0687,0.05725 -0.109914,0.144262 -0.03893,0.08472 -0.03893,0.194639 z m 0.18548,-0.0229 q 0,-0.08702 0.04351,-0.155711 0.0458,-0.07099 0.116784,-0.112204 0.07327,-0.04122 0.153421,-0.04122 0.08015,0 0.151131,0.04122 0.07328,0.04122 0.116784,0.112204 0.0458,0.0687 0.0458,0.155711 0,0.09847 -0.0458,0.167161 -0.04351,0.0687 -0.116784,0.105334 -0.07099,0.03664 -0.151131,0.03664 -0.08015,0 -0.153421,-0.03664 -0.07099,-0.03664 -0.116784,-0.105334 -0.04351,-0.0687 -0.04351,-0.167161 z"
         style="font-family:Jost;-inkscape-font-specification:Jost"
         id="path3380" />
      <path
         d="m 65.659934,46.507797 q 0,0.109914 -0.04809,0.194639 -0.0458,0.08473 -0.128232,0.135103 -0.08015,0.04809 -0.18319,0.04809 -0.103044,0 -0.185479,-0.04809 -0.08015,-0.05038 -0.128233,-0.135103 -0.0458,-0.08472 -0.0458,-0.194639 0,-0.109913 0.0458,-0.192349 0.04809,-0.08472 0.128233,-0.132812 0.08244,-0.04809 0.185479,-0.04809 0.103044,0 0.18319,0.04809 0.08244,0.04809 0.128232,0.132812 0.04809,0.08244 0.04809,0.192349 z m -0.455684,1.076239 0.540409,-0.744207 q 0.0458,-0.06412 0.07328,-0.148842 0.02748,-0.08472 0.02748,-0.18319 0,-0.16487 -0.07328,-0.288523 -0.07099,-0.123653 -0.194639,-0.192349 -0.121363,-0.0687 -0.277074,-0.0687 -0.153421,0 -0.277074,0.0687 -0.123653,0.0687 -0.196929,0.192349 -0.07099,0.123653 -0.07099,0.288523 0,0.109914 0.03664,0.206089 0.03664,0.09388 0.100754,0.16487 0.06641,0.07099 0.151132,0.109914 0.08701,0.03893 0.185479,0.03893 0.07786,0 0.137392,-0.01832 0.06183,-0.01832 0.107624,-0.07557 l -0.01374,-0.01145 -0.501481,0.661772 z"
         style="font-family:Jost;-inkscape-font-specification:Jost"
         id="path3382" />
      <path
         d="m 56.499848,51.383404 0.35493,-0.105334 v 1.392241 h 0.194639 v -1.625808 l -0.549569,0.137392 z"
         style="font-family:Jost;-inkscape-font-specification:Jost"
         id="path3384" />
      <path
         d="m 57.633335,51.868856 q 0,-0.139682 0.02748,-0.256465 0.02748,-0.119073 0.08015,-0.203799 0.05267,-0.08701 0.125943,-0.132812 0.07557,-0.04809 0.167161,-0.04809 0.09388,0 0.16716,0.04809 0.07328,0.0458 0.125943,0.132812 0.05267,0.08473 0.08015,0.203799 0.02748,0.116783 0.02748,0.256465 0,0.139682 -0.02748,0.258756 -0.02748,0.116783 -0.08015,0.203798 -0.05267,0.08472 -0.125943,0.132813 -0.07328,0.0458 -0.16716,0.0458 -0.0916,0 -0.167161,-0.0458 -0.07328,-0.04809 -0.125943,-0.132813 -0.05267,-0.08702 -0.08015,-0.203798 -0.02748,-0.119074 -0.02748,-0.258756 z m -0.194639,0 q 0,0.240437 0.07557,0.425916 0.07557,0.18548 0.208378,0.293103 0.135103,0.105335 0.311423,0.105335 0.17632,0 0.309132,-0.105335 0.135102,-0.107623 0.210668,-0.293103 0.07557,-0.185479 0.07557,-0.425916 0,-0.240436 -0.07557,-0.425916 -0.07557,-0.185479 -0.210668,-0.290813 -0.132812,-0.107624 -0.309132,-0.107624 -0.17632,0 -0.311423,0.107624 -0.132812,0.105334 -0.208378,0.290813 -0.07557,0.18548 -0.07557,0.425916 z"
         style="font-family:Jost;-inkscape-font-specification:Jost"
         id="path3386" />
      <path
         d="m 47.900889,44.563429 0.35493,-0.105334 v 1.392241 h 0.194639 v -1.625807 l -0.549569,0.137392 z"
         style="font-family:Jost;-inkscape-font-specification:Jost"
         id="path3388" />
      <path
         d="m 48.931332,44.563429 0.35493,-0.105334 v 1.392241 h 0.194639 v -1.625807 l -0.549569,0.137392 z"
         style="font-family:Jost;-inkscape-font-specification:Jost"
         id="path3390" />
      <path
         d="m 36.986827,48.12835 0.35493,-0.105334 v 1.392241 h 0.194639 v -1.625808 l -0.549569,0.137392 z"
         style="font-family:Jost;-inkscape-font-specification:Jost"
         id="path3392" />
      <path
         d="m 37.879878,49.415257 h 1.131196 v -0.18319 h -0.730469 l 0.510641,-0.5198 q 0.09389,-0.09618 0.153421,-0.217538 0.05954,-0.121363 0.05954,-0.245016 0,-0.07328 -0.02977,-0.153421 -0.02977,-0.08015 -0.09159,-0.148842 -0.06183,-0.07099 -0.158001,-0.114493 -0.09617,-0.0458 -0.228987,-0.0458 -0.164871,0 -0.283944,0.07328 -0.116783,0.07099 -0.17861,0.201509 -0.06183,0.128232 -0.06183,0.299973 h 0.194639 q 0,-0.121363 0.03893,-0.208379 0.03893,-0.0893 0.112204,-0.135102 0.07557,-0.04809 0.17861,-0.04809 0.07328,0 0.130523,0.02519 0.05725,0.02519 0.09617,0.06641 0.04122,0.04122 0.06183,0.09159 0.02061,0.05038 0.02061,0.103045 0,0.06412 -0.02061,0.123653 -0.01832,0.05725 -0.05725,0.114493 -0.03664,0.05496 -0.0893,0.112204 z"
         style="font-family:Jost;-inkscape-font-specification:Jost"
         id="path3394" />
      <path
         d="m 42.543077,50.568792 0.35493,-0.105334 v 1.392241 h 0.194639 v -1.625807 l -0.549569,0.137392 z"
         style="font-family:Jost;-inkscape-font-specification:Jost"
         id="path3396" />
      <path
         d="m 43.969668,51.065694 q 0.155711,0 0.272494,-0.05496 0.116784,-0.05496 0.18319,-0.148841 0.06641,-0.09389 0.06641,-0.206089 0,-0.114493 -0.05496,-0.210668 -0.05267,-0.09617 -0.153421,-0.155711 -0.09847,-0.05954 -0.235857,-0.05954 -0.130522,0 -0.233567,0.05496 -0.100754,0.05267 -0.16029,0.146551 -0.05725,0.09389 -0.05725,0.219828 h 0.185479 q 0,-0.105334 0.07786,-0.17403 0.07785,-0.07099 0.190059,-0.07099 0.08015,0 0.132813,0.03206 0.05496,0.03206 0.08244,0.09159 0.02748,0.05725 0.02748,0.132812 0,0.05725 -0.0229,0.107624 -0.02061,0.05038 -0.06183,0.0893 -0.04122,0.03664 -0.100754,0.05954 -0.05954,0.02061 -0.137392,0.02061 z m 0.0687,0.812904 q 0.144262,0 0.256465,-0.05496 0.112204,-0.05496 0.17632,-0.155711 0.06641,-0.100754 0.06641,-0.235857 0,-0.119073 -0.0458,-0.203798 -0.04351,-0.08472 -0.123653,-0.137392 -0.07786,-0.05496 -0.1809,-0.08015 -0.100754,-0.02519 -0.217537,-0.02519 v 0.125943 q 0.07785,0 0.144261,0.01832 0.06641,0.01832 0.116784,0.05725 0.05038,0.03664 0.07785,0.09389 0.02977,0.05496 0.02977,0.128233 0,0.08701 -0.03664,0.151131 -0.03664,0.06412 -0.105334,0.100754 -0.06641,0.03435 -0.158001,0.03435 -0.0916,0 -0.162581,-0.03435 -0.07099,-0.03435 -0.112204,-0.09388 -0.03893,-0.05954 -0.03893,-0.135103 h -0.196929 q 0,0.09389 0.03664,0.17632 0.03664,0.08015 0.103044,0.141972 0.06641,0.05954 0.160291,0.09389 0.09388,0.03435 0.210668,0.03435 z"
         style="font-family:Jost;-inkscape-font-specification:Jost"
         id="path3398" />
      <path
         d="m 47.25604,52.950042 0.354929,-0.105334 v 1.392241 h 0.194639 v -1.625807 l -0.549568,0.137392 z"
         style="font-family:Jost;-inkscape-font-specification:Jost"
         id="path3400" />
      <path
         d="m 48.149091,53.916368 h 1.2205 V 53.744627 H 49.04214 49.00321 48.46967 l 0.453395,-0.677801 v 0.741918 0.02519 0.403017 h 0.194639 v -1.602909 h -0.08015 z"
         style="font-family:Jost;-inkscape-font-specification:Jost"
         id="path3402" />
      <path
         d="m 40.742792,55.397438 0.35493,-0.105334 v 1.392241 h 0.194639 v -1.625807 l -0.549569,0.137392 z"
         style="font-family:Jost;-inkscape-font-specification:Jost"
         id="path3404" />
      <path
         d="m 42.789938,56.157675 q 0,-0.160291 -0.06183,-0.281654 -0.06183,-0.121363 -0.171741,-0.190059 -0.107624,-0.0687 -0.245016,-0.0687 -0.05954,0 -0.121363,0.01603 -0.05954,0.01374 -0.116783,0.04351 l 0.107624,-0.423626 h 0.604525 v -0.171741 h -0.755657 l -0.210668,0.854122 q 0.08243,-0.05725 0.144262,-0.08701 0.06412,-0.03206 0.125943,-0.04351 0.06412,-0.01374 0.139682,-0.01374 0.103044,0 0.183189,0.0458 0.08244,0.0458 0.128233,0.128233 0.04809,0.08244 0.04809,0.192349 0,0.109914 -0.04351,0.192349 -0.04122,0.08244 -0.121363,0.128233 -0.08015,0.0458 -0.194639,0.0458 -0.08702,0 -0.167161,-0.03664 -0.08014,-0.03893 -0.141972,-0.09847 -0.05954,-0.06183 -0.09617,-0.130522 l -0.164871,0.112203 q 0.05267,0.0916 0.128233,0.169451 0.07786,0.07556 0.185479,0.121363 0.109914,0.0458 0.256466,0.0458 0.116783,0 0.217538,-0.03435 0.100754,-0.03435 0.178609,-0.103044 0.07786,-0.0687 0.121363,-0.17174 0.04351,-0.103045 0.04351,-0.240437 z"
         style="font-family:Jost;-inkscape-font-specification:Jost"
         id="path3406" />
    </g>
    <circle
       style="fill:#e30303;fill-opacity:1;stroke:none;stroke-width:0.2;stroke-linejoin:bevel;stroke-dasharray:none"
       id="path3557"
       cx="33.74612"
       cy="56.898342"
       r="0.72496861" />
  </g>
</svg>
