<?xml version="1.0" encoding="UTF-8" standalone="no"?>
<svg
   xmlns:dc="http://purl.org/dc/elements/1.1/"
   xmlns:cc="http://creativecommons.org/ns#"
   xmlns:rdf="http://www.w3.org/1999/02/22-rdf-syntax-ns#"
   xmlns:svg="http://www.w3.org/2000/svg"
   xmlns="http://www.w3.org/2000/svg"
   xmlns:sodipodi="http://sodipodi.sourceforge.net/DTD/sodipodi-0.dtd"
   xmlns:inkscape="http://www.inkscape.org/namespaces/inkscape"
   id="svg8"
   version="1.1"
   viewBox="0 0 101.47502 41.133884"
   height="41.133884mm"
   width="101.47502mm"
   inkscape:version="1.0 (4035a4fb49, 2020-05-01)"
   sodipodi:docname="logo_bigtext_dark.svg">
  <defs
     id="defs2" />
  <sodipodi:namedview
     id="base"
     pagecolor="#ffffff"
     bordercolor="#666666"
     borderopacity="1.0"
     inkscape:pageopacity="0.0"
     inkscape:pageshadow="2"
     inkscape:zoom="2"
     inkscape:cx="183.9288"
     inkscape:cy="60.077276"
     inkscape:document-units="mm"
     inkscape:current-layer="text988"
     inkscape:document-rotation="0"
     showgrid="false"
     inkscape:window-width="1920"
     inkscape:window-height="1017"
     inkscape:window-x="-8"
     inkscape:window-y="-8"
     inkscape:window-maximized="1" />
  <metadata
     id="metadata5">
    <rdf:RDF>
      <cc:Work
         rdf:about="">
        <dc:format>image/svg+xml</dc:format>
        <dc:type
           rdf:resource="http://purl.org/dc/dcmitype/StillImage" />
        <dc:title />
      </cc:Work>
    </rdf:RDF>
  </metadata>
  <g
     inkscape:label="Layer 1"
     inkscape:groupmode="layer"
     id="layer1"
     transform="translate(-82.495613,-53.257713)">
    <g
       id="g952"
       inkscape:label="globo">
      <path
         style="fill:none;stroke:#ffffff;stroke-width:1.3;stroke-linecap:round;stroke-linejoin:round;stroke-miterlimit:4;stroke-dasharray:none;stroke-opacity:1;paint-order:stroke fill markers;stop-color:#ffffff"
         d="m 95.77985,86.076303 c 0,0 2.138156,2.083092 0,4.187839 -2.138156,2.104747 0.120493,3.477455 0.120493,3.477455"
         id="path954"
         inkscape:label="cuerda"
         sodipodi:nodetypes="csc" />
      <path
         id="path847-1"
         style="display:inline;fill:#ff7fff;stroke:none;stroke-width:0.600001;stroke-linecap:round;stroke-linejoin:round;stroke-miterlimit:40;stroke-dasharray:none;paint-order:stroke fill markers;stop-color:#ffffff"
         inkscape:transform-center-y="-0.8291948"
         d="m 98.244872,86.691175 h -4.189731 l 2.094865,-4.97517 z"
         inkscape:label="nudo" />
      <path
         sodipodi:nodetypes="sssss"
         d="m 109.8044,66.912104 c 0,7.541121 -8.49454,18.242271 -13.654397,18.242271 -5.159862,0 -13.654391,-10.70116 -13.65439,-18.242271 -1e-6,-7.541111 5.584111,-13.654391 13.65439,-13.654391 8.070277,0 13.654397,6.11327 13.654397,13.654391 z"
         style="fill:#ff41ff;fill-opacity:1;stroke:none;stroke-width:0.433501;stroke-linecap:round;stroke-linejoin:round;stroke-miterlimit:4;stroke-dasharray:none;paint-order:stroke fill markers;stop-color:#ffffff"
         id="path927"
         inkscape:label="cuerpo" />
      <text
         xml:space="preserve"
         style="font-size:15.395px;line-height:1.25;font-family:'IBM 3270';-inkscape-font-specification:'IBM 3270, ';fill:#000000;stroke:#000000;stroke-width:0.5;stroke-miterlimit:4;stroke-dasharray:none;stroke-opacity:1"
         x="87.897087"
         y="73.565399"
         id="text984"
         inkscape:label="AC"><tspan
           sodipodi:role="line"
           id="tspan982"
           x="87.897087"
           y="73.565399"
           style="font-style:normal;font-variant:normal;font-weight:500;font-stretch:normal;font-family:'IBM 3270';-inkscape-font-specification:'IBM 3270 Medium';fill:#ffffff;stroke:#ffffff;stroke-width:0.5;stroke-miterlimit:4;stroke-dasharray:none;stroke-opacity:1">AC</tspan></text>
    </g>
    <g
       id="g1080"
       inkscape:label="titulo"
       transform="matrix(1.7079515,0,0,1.7079515,-78.347137,-44.07826)">
      <text
         id="text1020"
         y="80.948242"
         x="111.97544"
         style="font-size:8.77333px;line-height:0;font-family:Cornerstone;-inkscape-font-specification:Cornerstone;letter-spacing:3.0136px;opacity:0.996;stroke-width:0.328999;fill:#ffffff;"
         xml:space="preserve"
         inkscape:label="uchile"><tspan
           style="line-height:1.25;stroke-width:0.328999;fill:#ffffff;"
           y="80.948242"
           x="111.97544"
           id="tspan1018"
           sodipodi:role="line">UCHILE</tspan></text>
      <g
         inkscape:label="progcomp"
         style="font-size:6.14133px;line-height:1.25;font-family:Cornerstone;-inkscape-font-specification:Cornerstone;opacity:0.996;stroke-width:0.328999"
         id="text988"
         aria-label="PROGRAMACION
COMPETITIVA">
        <path
           id="path956"
           style="font-size:6.14133px;stroke-width:0.328999;fill:#ffffff"
           d="m 114.62629,59.7217 q 0,0.593741 0,1.76923 0,0.185919 -0.12595,0.317862 -0.13194,0.125945 -0.31186,0.125945 -0.44381,0 -1.33142,0 0,0.587745 0,1.769231 -0.29387,0 -0.88162,0 0,-0.293872 0,-0.737679 0,-0.43781 0,-1.031552 0,-0.293872 0,-0.881616 0,-0.29987 0,-0.887614 0,-0.293873 0,-0.881617 0.29387,0 0.88162,0 0.4438,0 1.33142,0 0.17992,0 0.31186,0.125945 0.12595,0.131943 0.12595,0.311865 z m -1.76923,1.331421 q 0.29987,0 0.88761,0 0,-0.05398 0,-0.155933 0,-0.245893 0,-0.731681 -0.29387,0 -0.88761,0 0,0.293872 0,0.887614 z" />
        <path
           id="path958"
           style="font-size:6.14133px;stroke-width:0.328999;fill:#ffffff"
           d="m 117.72694,61.49093 q 0.17992,0 0.31186,0.131943 0.12595,0.125945 0.12595,0.311864 0,0.587745 0,1.769231 -0.29387,0 -0.88162,0 0,-0.587744 0,-1.769231 -0.29387,0 -0.88761,0 0,0.587745 0,1.769231 -0.29387,0 -0.88162,0 0,-0.587744 0,-1.769231 0,-0.293872 0,-0.881616 0,-0.293873 0,-0.73768 0,-0.443807 0,-1.031551 0.29387,0 0.88162,0 0.44381,0 1.33142,0 0.17992,0 0.31186,0.125945 0.12595,0.131943 0.12595,0.311865 0,0.443807 0,1.331421 0,0.179921 -0.12595,0.311864 -0.13194,0.125945 -0.31186,0.125945 z m -0.44381,-0.437809 q 0,-0.05398 0,-0.155933 0,-0.245893 0,-0.731681 -0.29387,0 -0.88761,0 0,0.293872 0,0.887614 0.29987,0 0.88761,0 z" />
        <path
           id="path960"
           style="font-size:6.14133px;stroke-width:0.328999;fill:#ffffff"
           d="m 121.70321,59.7217 q 0,1.181486 0,3.538461 0,0.185919 -0.12594,0.311864 -0.13195,0.131943 -0.31187,0.131943 -0.59374,0 -1.76923,0 -0.18592,0 -0.31186,-0.131943 -0.13195,-0.125945 -0.13195,-0.311864 0,-0.443807 0,-1.331421 0,-0.365841 0,-0.911604 0,-0.557757 0,-1.295436 0,-0.179922 0.13195,-0.311865 0.12594,-0.125945 0.31186,-0.125945 0.58775,0 1.76923,0 0.17992,0 0.31187,0.125945 0.12594,0.131943 0.12594,0.311865 z m -1.76923,3.100651 q 0.29987,0 0.88761,0 0,-0.05997 0,-0.173924 0,-0.82764 0,-2.48292 -0.29387,0 -0.88761,0 0,0.443807 0,1.325423 0,0.443807 0,1.331421 z" />
        <path
           id="path962"
           style="font-size:6.14133px;stroke-width:0.328999;fill:#ffffff"
           d="m 124.36006,60.609314 q 0,-0.149935 0,-0.443807 -0.29388,0 -0.88762,0 0,0.887614 0,2.656844 0.29987,0 0.88762,0 0,-0.299869 0,-0.887614 -0.14994,0 -0.44381,0 0,-0.293872 0,-0.881616 0.44381,0 1.32542,0 0,0.293872 0,0.881616 0,0.443807 0,1.325424 0,0.185919 -0.12594,0.311864 -0.13195,0.131943 -0.31187,0.131943 -0.59374,0 -1.76923,0 -0.18592,0 -0.31186,-0.131943 -0.13194,-0.125945 -0.13194,-0.311864 0,-0.443807 0,-1.331421 0,-0.365841 0,-0.911604 0,-0.557757 0,-1.295436 0,-0.179922 0.13194,-0.311865 0.12594,-0.125945 0.31186,-0.125945 0.58775,0 1.76923,0 0.17992,0 0.31187,0.125945 0.12594,0.131943 0.12594,0.311865 0,0.299869 0,0.887614 -0.29387,0 -0.88161,0 z" />
        <path
           id="path964"
           style="font-size:6.14133px;stroke-width:0.328999;fill:#ffffff"
           d="m 128.34232,61.49093 q 0.17993,0 0.31187,0.131943 0.12594,0.125945 0.12594,0.311864 0,0.587745 0,1.769231 -0.29387,0 -0.88161,0 0,-0.587744 0,-1.769231 -0.29387,0 -0.88762,0 0,0.587745 0,1.769231 -0.29387,0 -0.88161,0 0,-0.587744 0,-1.769231 0,-0.293872 0,-0.881616 0,-0.293873 0,-0.73768 0,-0.443807 0,-1.031551 0.29387,0 0.88161,0 0.44381,0 1.33142,0 0.17993,0 0.31187,0.125945 0.12594,0.131943 0.12594,0.311865 0,0.443807 0,1.331421 0,0.179921 -0.12594,0.311864 -0.13194,0.125945 -0.31187,0.125945 z m -0.4438,-0.437809 q 0,-0.05398 0,-0.155933 0,-0.245893 0,-0.731681 -0.29387,0 -0.88762,0 0,0.293872 0,0.887614 0.29987,0 0.88762,0 z" />
        <path
           id="path966"
           style="font-size:6.14133px;stroke-width:0.328999;fill:#ffffff"
           d="m 132.31859,63.703968 q -0.29387,0 -0.88161,0 0,-0.587744 0,-1.769231 -0.29387,0 -0.88762,0 0,0.587745 0,1.769231 -0.29387,0 -0.88161,0 0,-0.497784 0,-1.499348 0,-0.41382 0,-1.031552 0,-0.623728 0,-1.451368 0,-0.179922 0.13194,-0.311865 0.12595,-0.125945 0.31186,-0.125945 0.58775,0 1.76924,0 0.17992,0 0.31186,0.125945 0.12594,0.131943 0.12594,0.311865 0,1.331421 0,3.982268 z m -0.88161,-2.650847 q 0,-0.05398 0,-0.155933 0,-0.245893 0,-0.731681 -0.29387,0 -0.88762,0 0,0.293872 0,0.887614 0.29987,0 0.88762,0 z" />
        <path
           id="path968"
           style="font-size:6.14133px;stroke-width:0.328999;fill:#ffffff"
           d="m 137.62629,59.7217 q 0,1.331421 0,3.982268 -0.29387,0 -0.88162,0 0,-1.181486 0,-3.538461 -0.29387,0 -0.88761,0 0,1.181486 0,3.538461 -0.29388,0 -0.88162,0 0,-1.181486 0,-3.538461 -0.29387,0 -0.88761,0 0,1.181486 0,3.538461 -0.29388,0 -0.88162,0 0,-0.497784 0,-1.499348 0,-0.41382 0,-1.031552 0,-0.623728 0,-1.451368 0,-0.179922 0.13194,-0.311865 0.12595,-0.125945 0.31187,-0.125945 0.43781,0 1.32542,0 0.18592,0 0.31186,0.125945 0.13195,0.131943 0.13195,0.311865 0,-0.179922 0.12594,-0.311865 0.13194,-0.125945 0.31187,-0.125945 0.4438,0 1.33142,0 0.17992,0 0.31186,0.125945 0.12595,0.131943 0.12595,0.311865 z" />
        <path
           id="path970"
           style="font-size:6.14133px;stroke-width:0.328999;fill:#ffffff"
           d="m 141.17075,63.703968 q -0.29388,0 -0.88162,0 0,-0.587744 0,-1.769231 -0.29387,0 -0.88761,0 0,0.587745 0,1.769231 -0.29388,0 -0.88162,0 0,-0.497784 0,-1.499348 0,-0.41382 0,-1.031552 0,-0.623728 0,-1.451368 0,-0.179922 0.13194,-0.311865 0.12595,-0.125945 0.31187,-0.125945 0.58774,0 1.76923,0 0.17992,0 0.31186,0.125945 0.12595,0.131943 0.12595,0.311865 0,1.331421 0,3.982268 z m -0.88162,-2.650847 q 0,-0.05398 0,-0.155933 0,-0.245893 0,-0.731681 -0.29387,0 -0.88761,0 0,0.293872 0,0.887614 0.29987,0 0.88761,0 z" />
        <path
           id="path972"
           style="font-size:6.14133px;stroke-width:0.328999;fill:#ffffff"
           d="m 143.82759,60.609314 q 0,-0.149935 0,-0.443807 -0.29387,0 -0.88761,0 0,0.887614 0,2.656844 0.29987,0 0.88761,0 0,-0.149934 0,-0.443807 0.29387,0 0.88162,0 0,0.293873 0,0.881617 0,0.185919 -0.12595,0.311864 -0.13194,0.131943 -0.31186,0.131943 -0.59374,0 -1.76923,0 -0.18592,0 -0.31187,-0.131943 -0.13194,-0.125945 -0.13194,-0.311864 0,-0.443807 0,-1.331421 0,-0.365841 0,-0.911604 0,-0.557757 0,-1.295436 0,-0.179922 0.13194,-0.311865 0.12595,-0.125945 0.31187,-0.125945 0.58774,0 1.76923,0 0.17992,0 0.31186,0.125945 0.12595,0.131943 0.12595,0.311865 0,0.299869 0,0.887614 -0.29387,0 -0.88162,0 z" />
        <path
           id="path974"
           style="font-size:6.14133px;stroke-width:0.328999;fill:#ffffff"
           d="m 145.59682,59.28389 q 0.2219,0 0.88162,0 0,0.82764 0,3.316558 0,0.27588 0,1.10352 -0.21591,0 -0.88162,0 0,-0.55176 0,-1.65528 0,-1.10352 0,-2.764798 z" />
        <path
           id="path976"
           style="font-size:6.14133px;stroke-width:0.328999;fill:#ffffff"
           d="m 150.0229,59.7217 q 0,1.181486 0,3.538461 0,0.185919 -0.12595,0.311864 -0.13194,0.131943 -0.31186,0.131943 -0.59374,0 -1.76923,0 -0.18592,0 -0.31187,-0.131943 -0.13194,-0.125945 -0.13194,-0.311864 0,-0.443807 0,-1.331421 0,-0.365841 0,-0.911604 0,-0.557757 0,-1.295436 0,-0.179922 0.13194,-0.311865 0.12595,-0.125945 0.31187,-0.125945 0.58774,0 1.76923,0 0.17992,0 0.31186,0.125945 0.12595,0.131943 0.12595,0.311865 z m -1.76923,3.100651 q 0.29987,0 0.88761,0 0,-0.05997 0,-0.173924 0,-0.82764 0,-2.48292 -0.29387,0 -0.88761,0 0,0.443807 0,1.325423 0,0.443807 0,1.331421 z" />
        <path
           id="path978"
           style="font-size:6.14133px;stroke-width:0.328999;fill:#ffffff"
           d="m 153.56136,59.7217 q 0,1.331421 0,3.982268 -0.29387,0 -0.88162,0 0,-1.181486 0,-3.538461 -0.29387,0 -0.88761,0 0,1.181486 0,3.538461 -0.29387,0 -0.88162,0 0,-0.737679 0,-1.841199 0,-1.103521 0,-2.578879 0.29387,0 0.88162,0 0.4438,0 1.33142,0 0.17992,0 0.31186,0.125945 0.12595,0.131943 0.12595,0.311865 z" />
        <path
           id="path980"
           style="font-size:6.14133px;letter-spacing:0.489479px;stroke-width:0.328999;fill:#ffffff"
           d="m 113.74467,68.285976 q 0,-0.149935 0,-0.443807 -0.29387,0 -0.88761,0 0,0.887614 0,2.656845 0.29987,0 0.88761,0 0,-0.149935 0,-0.443807 0.29387,0 0.88162,0 0,0.293872 0,0.881616 0,0.185919 -0.12595,0.311865 -0.13194,0.131942 -0.31186,0.131942 -0.59374,0 -1.76923,0 -0.18592,0 -0.31187,-0.131942 -0.13194,-0.125946 -0.13194,-0.311865 0,-0.443807 0,-1.331421 0,-0.365841 0,-0.911604 0,-0.557757 0,-1.295436 0,-0.179922 0.13194,-0.311865 0.12595,-0.125945 0.31187,-0.125945 0.58774,0 1.76923,0 0.17992,0 0.31186,0.125945 0.12595,0.131943 0.12595,0.311865 0,0.299869 0,0.887614 -0.29387,0 -0.88162,0 z" />
        <path
           id="path982"
           style="font-size:6.14133px;letter-spacing:0.489479px;stroke-width:0.328999;fill:#ffffff"
           d="m 118.65423,67.398362 q 0,1.181486 0,3.538461 0,0.185919 -0.12595,0.311865 -0.13194,0.131942 -0.31186,0.131942 -0.59374,0 -1.76923,0 -0.18592,0 -0.31187,-0.131942 -0.13194,-0.125946 -0.13194,-0.311865 0,-0.443807 0,-1.331421 0,-0.365841 0,-0.911604 0,-0.557757 0,-1.295436 0,-0.179922 0.13194,-0.311865 0.12595,-0.125945 0.31187,-0.125945 0.58774,0 1.76923,0 0.17992,0 0.31186,0.125945 0.12595,0.131943 0.12595,0.311865 z m -1.76923,3.100652 q 0.29987,0 0.88761,0 0,-0.05997 0,-0.173925 0,-0.82764 0,-2.48292 -0.29387,0 -0.88761,0 0,0.443807 0,1.325423 0,0.443808 0,1.331422 z" />
        <path
           id="path984"
           style="font-size:6.14133px;letter-spacing:0.489479px;stroke-width:0.328999;fill:#ffffff"
           d="m 124.4514,67.398362 q 0,1.331421 0,3.982268 -0.29387,0 -0.88162,0 0,-1.181486 0,-3.538461 -0.29387,0 -0.88761,0 0,1.181486 0,3.538461 -0.29387,0 -0.88162,0 0,-1.181486 0,-3.538461 -0.29387,0 -0.88761,0 0,1.181486 0,3.538461 -0.29387,0 -0.88162,0 0,-0.497783 0,-1.499348 0,-0.41382 0,-1.031551 0,-0.623729 0,-1.451369 0,-0.179922 0.13194,-0.311865 0.12595,-0.125945 0.31187,-0.125945 0.43781,0 1.32542,0 0.18592,0 0.31187,0.125945 0.13194,0.131943 0.13194,0.311865 0,-0.179922 0.12594,-0.311865 0.13195,-0.125945 0.31187,-0.125945 0.44381,0 1.33142,0 0.17992,0 0.31186,0.125945 0.12595,0.131943 0.12595,0.311865 z" />
        <path
           id="path986"
           style="font-size:6.14133px;letter-spacing:0.489479px;stroke-width:0.328999;fill:#ffffff"
           d="m 128.48534,67.398362 q 0,0.593742 0,1.76923 0,0.18592 -0.12595,0.317862 -0.13194,0.125946 -0.31186,0.125946 -0.44381,0 -1.33142,0 0,0.587744 0,1.76923 -0.29387,0 -0.88162,0 0,-0.293872 0,-0.737679 0,-0.43781 0,-1.031551 0,-0.293873 0,-0.881617 0,-0.29987 0,-0.887614 0,-0.293872 0,-0.881617 0.29387,0 0.88162,0 0.4438,0 1.33142,0 0.17992,0 0.31186,0.125945 0.12595,0.131943 0.12595,0.311865 z m -1.76923,1.331421 q 0.29987,0 0.88761,0 0,-0.05398 0,-0.155932 0,-0.245893 0,-0.731682 -0.29387,0 -0.88761,0 0,0.293872 0,0.887614 z" />
        <path
           id="path988"
           style="font-size:6.14133px;letter-spacing:0.489479px;stroke-width:0.328999;fill:#ffffff"
           d="m 132.51328,67.842169 q 0,-0.221904 0,-0.881617 -0.43781,0 -1.76923,0 -0.21591,0 -0.88162,0 0,0.221904 0,0.881617 0,0.221903 0,0.887614 0,0.215906 0,0.881617 0,0.221903 0,0.887614 0,0.143937 0,0.365841 0,0.221903 0,0.515775 0.29387,0 0.88162,0 0.59374,0 1.76923,0 0,-0.293872 0,-0.881616 -0.58775,0 -1.76923,0 0,-0.29987 0,-0.887614 0.4438,0 1.33142,0 0,-0.293873 0,-0.881617 -0.44381,0 -1.33142,0 0,-0.29987 0,-0.887614 0.59374,0 1.76923,0 z" />
        <path
           id="path990"
           style="font-size:6.14133px;letter-spacing:0.489479px;stroke-width:0.328999;fill:#ffffff"
           d="m 136.54122,66.960552 q -0.65971,0 -2.65085,0 0,0.107953 0,0.329857 0,0.221903 0,0.55176 0.2219,0 0.88162,0 0,0.887614 0,3.538461 0.2219,0 0.88761,0 0,-0.881616 0,-3.538461 0.22191,0 0.88162,0 0,-0.293872 0,-0.881617 z" />
        <path
           id="path992"
           style="font-size:6.14133px;letter-spacing:0.489479px;stroke-width:0.328999;fill:#ffffff"
           d="m 137.91831,66.960552 q 0.22191,0 0.88162,0 0,0.82764 0,3.316558 0,0.27588 0,1.10352 -0.21591,0 -0.88162,0 0,-0.55176 0,-1.65528 0,-1.10352 0,-2.764798 z" />
        <path
           id="path994"
           style="font-size:6.14133px;letter-spacing:0.489479px;stroke-width:0.328999;fill:#ffffff"
           d="m 142.83387,66.960552 q -0.65972,0 -2.65085,0 0,0.107953 0,0.329857 0,0.221903 0,0.55176 0.2219,0 0.88162,0 0,0.887614 0,3.538461 0.2219,0 0.88761,0 0,-0.881616 0,-3.538461 0.2219,0 0.88162,0 0,-0.293872 0,-0.881617 z" />
        <path
           id="path996"
           style="font-size:6.14133px;letter-spacing:0.489479px;stroke-width:0.328999;fill:#ffffff"
           d="m 144.21096,66.960552 q 0.2219,0 0.88162,0 0,0.82764 0,3.316558 0,0.27588 0,1.10352 -0.21591,0 -0.88162,0 0,-0.55176 0,-1.65528 0,-1.10352 0,-2.764798 z" />
        <path
           id="path998"
           style="font-size:6.14133px;letter-spacing:0.489479px;stroke-width:0.328999;fill:#ffffff"
           d="m 146.35572,66.960552 q 0.24589,0 0.98957,0 0.16792,0.797653 0.66571,3.202608 0.16793,-0.797654 0.66571,-3.202608 0.24589,0 0.98957,0 -0.29987,1.10352 -1.21147,4.420078 -0.22191,0 -0.88762,0 -0.29987,-1.10352 -1.21147,-4.420078 z" />
        <path
           id="path1000"
           style="font-size:6.14133px;letter-spacing:0.489479px;stroke-width:0.328999;fill:#ffffff"
           d="m 153.57427,71.38063 q -0.29387,0 -0.88162,0 0,-0.587744 0,-1.76923 -0.29387,0 -0.88761,0 0,0.587744 0,1.76923 -0.29387,0 -0.88162,0 0,-0.497783 0,-1.499348 0,-0.41382 0,-1.031551 0,-0.623729 0,-1.451369 0,-0.179922 0.13195,-0.311865 0.12594,-0.125945 0.31186,-0.125945 0.58775,0 1.76923,0 0.17992,0 0.31187,0.125945 0.12594,0.131943 0.12594,0.311865 0,1.331421 0,3.982268 z m -0.88162,-2.650847 q 0,-0.05398 0,-0.155932 0,-0.245893 0,-0.731682 -0.29387,0 -0.88761,0 0,0.293872 0,0.887614 0.29987,0 0.88761,0 z" />
      </g>
      <text
         inkscape:transform-center-y="-0.67085213"
         inkscape:transform-center-x="-0.22536225"
         transform="rotate(45)"
         id="text1053"
         y="-61.846958"
         x="145.92953"
         style="font-size:4.39954px;line-height:1.25;font-family:Cornerstone;-inkscape-font-specification:Cornerstone;opacity:0.996;stroke-width:0.183314;fill:#ffffff;"
         xml:space="preserve"
         inkscape:label="tilde"><tspan
           style="stroke-width:0.183314;fill:#ffffff;"
           y="-61.846958"
           x="145.92953"
           id="tspan1051"
           sodipodi:role="line">'</tspan></text>
    </g>
  </g>
</svg>
