<?xml version="1.0" encoding="UTF-8" standalone="no"?>
<!-- Created with Inkscape (http://www.inkscape.org/) -->

<svg
   width="33.746063mm"
   height="20.563478mm"
   viewBox="0 0 33.746063 20.563478"
   version="1.1"
   id="svg5"
   inkscape:version="1.2.1 (9c6d41e410, 2022-07-14)"
   sodipodi:docname="camino_euleriano.svg"
   inkscape:export-filename="ciclo_euleriano.png"
   inkscape:export-xdpi="96"
   inkscape:export-ydpi="96"
   xmlns:inkscape="http://www.inkscape.org/namespaces/inkscape"
   xmlns:sodipodi="http://sodipodi.sourceforge.net/DTD/sodipodi-0.dtd"
   xmlns="http://www.w3.org/2000/svg"
   xmlns:svg="http://www.w3.org/2000/svg">
  <sodipodi:namedview
     id="namedview7"
     pagecolor="#ffffff"
     bordercolor="#000000"
     borderopacity="0.25"
     inkscape:showpageshadow="2"
     inkscape:pageopacity="0.0"
     inkscape:pagecheckerboard="0"
     inkscape:deskcolor="#d1d1d1"
     inkscape:document-units="mm"
     showgrid="false"
     inkscape:zoom="2.9814229"
     inkscape:cx="88.548323"
     inkscape:cy="32.870211"
     inkscape:window-width="1920"
     inkscape:window-height="1017"
     inkscape:window-x="1912"
     inkscape:window-y="-8"
     inkscape:window-maximized="1"
     inkscape:current-layer="layer1" />
  <defs
     id="defs2">
    <rect
       x="10.230015"
       y="78.318306"
       width="80.833885"
       height="42.764816"
       id="rect6408" />
    <marker
       style="overflow:visible"
       id="Dot"
       refX="0"
       refY="0"
       orient="auto"
       inkscape:stockid="Dot"
       markerWidth="5.6666665"
       markerHeight="5.6666665"
       viewBox="0 0 5.6666667 5.6666667"
       inkscape:isstock="true"
       inkscape:collect="always"
       preserveAspectRatio="xMidYMid">
      <path
         transform="scale(0.5)"
         style="fill:context-stroke;fill-rule:evenodd;stroke:context-stroke;stroke-width:1pt"
         d="M 5,0 C 5,2.76 2.76,5 0,5 -2.76,5 -5,2.76 -5,0 c 0,-2.76 2.3,-5 5,-5 2.76,0 5,2.24 5,5 z"
         id="Dot1"
         sodipodi:nodetypes="sssss" />
    </marker>
    <marker
       style="overflow:visible"
       id="Dot-3"
       refX="0"
       refY="0"
       orient="auto"
       inkscape:stockid="Dot"
       markerWidth="5.6666665"
       markerHeight="5.6666665"
       viewBox="0 0 5.6666667 5.6666667"
       inkscape:isstock="true"
       inkscape:collect="always"
       preserveAspectRatio="xMidYMid">
      <path
         transform="scale(0.5)"
         style="fill:context-stroke;fill-rule:evenodd;stroke:context-stroke;stroke-width:1pt"
         d="M 5,0 C 5,2.76 2.76,5 0,5 -2.76,5 -5,2.76 -5,0 c 0,-2.76 2.3,-5 5,-5 2.76,0 5,2.24 5,5 z"
         id="Dot1-4"
         sodipodi:nodetypes="sssss" />
    </marker>
  </defs>
  <g
     inkscape:label="Layer 1"
     inkscape:groupmode="layer"
     id="layer1"
     transform="translate(-33.784429,-48.610235)">
    <text
       xml:space="preserve"
       style="font-size:3.175px;fill:none;stroke:#000000;stroke-width:0.25;stroke-linejoin:bevel;stroke-dasharray:none;stroke-opacity:1"
       x="19.696344"
       y="76.652649"
       id="text3900"><tspan
         sodipodi:role="line"
         id="tspan3898"
         style="stroke-width:0.25"
         x="19.696344"
         y="76.652649" /></text>
    <path
       style="fill:#e30303;fill-opacity:1;stroke:none;stroke-width:0.229969;stroke-linejoin:bevel;stroke-dasharray:none"
       d="m 34.489817,56.038198 9.626756,3.173065"
       id="path5891" />
    <path
       style="fill:none;fill-opacity:1;stroke:#000000;stroke-width:0.229969;stroke-linecap:round;stroke-linejoin:bevel;stroke-dasharray:none;stroke-opacity:1;marker-mid:url(#Dot);marker-end:url(#Dot)"
       d="m 34.436035,56.091979 10.863714,-6.830157 11.132618,5.485638 9.572975,-4.463803 v 18.231678 l -4.302461,-9.572976 -5.416273,9.38126 -12.707843,-2.174638 3.280626,-8.49736 z"
       id="path6006" />
    <path
       style="fill:none;fill-opacity:1;stroke:#000000;stroke-width:0.229969;stroke-linejoin:bevel;stroke-dasharray:none;stroke-opacity:1"
       d="m 46.825297,57.62992 9.621272,-2.928212"
       id="path6008" />
    <path
       style="fill:none;fill-opacity:1;stroke:#000000;stroke-width:0.229969;stroke-linejoin:miter;stroke-dasharray:none;stroke-opacity:1"
       d="m 56.446569,54.777765 5.324023,4.22119"
       id="path6316" />
    <circle
       style="fill:#e30303;fill-opacity:1;stroke:none;stroke-width:0.2;stroke-linejoin:bevel;stroke-dasharray:none"
       id="path3557"
       cx="61.758877"
       cy="58.915791"
       r="0.72496861" />
    <circle
       style="fill:#e30303;fill-opacity:1;stroke:none;stroke-width:0.2;stroke-linejoin:bevel;stroke-dasharray:none"
       id="path3557-2"
       cx="46.845631"
       cy="57.578972"
       r="0.72496861" />
    <g
       aria-label="1 2
3 4
5 6 7 8 9 10 11 12 13"
       id="text6400"
       style="font-size:3.175px;font-family:Jost;-inkscape-font-specification:Jost;fill:#e30303;stroke-width:0.2;stroke-linecap:round;stroke-linejoin:bevel"
       transform="translate(-0.3993479,-0.13311597)">
      <path
         d="m 40.513221,57.559404 0.342857,-0.101752 v 1.344887 h 0.188019 V 57.23203 l -0.530876,0.132719 z"
         id="path6418"
         style="stroke-width:0.139338" />
      <path
         d="m 41.267711,53.859793 h 1.092721 v -0.176959 h -0.705623 l 0.493272,-0.50212 q 0.09069,-0.0929 0.148203,-0.210139 0.05751,-0.117235 0.05751,-0.236682 0,-0.07078 -0.02875,-0.148203 -0.02875,-0.07742 -0.08848,-0.143779 -0.05972,-0.06857 -0.152627,-0.110599 -0.0929,-0.04424 -0.221198,-0.04424 -0.159263,0 -0.274286,0.07078 -0.112812,0.06857 -0.172535,0.194654 -0.05972,0.123871 -0.05972,0.28977 h 0.188018 q 0,-0.117235 0.03761,-0.20129 0.03761,-0.08627 0.108387,-0.130508 0.07299,-0.04645 0.172535,-0.04645 0.07078,0 0.126083,0.02434 0.0553,0.02434 0.0929,0.06414 0.03982,0.03981 0.05973,0.08848 0.01991,0.04866 0.01991,0.09954 0,0.06194 -0.01991,0.119448 -0.0177,0.0553 -0.0553,0.110599 -0.03539,0.05309 -0.08627,0.108387 z"
         id="path6420"
         style="stroke-width:0.139338" />
      <path
         d="m 49.708464,52.53374 q 0.150415,0 0.263226,-0.05309 0.112812,-0.05309 0.176959,-0.143779 0.06415,-0.09069 0.06415,-0.199078 0,-0.110599 -0.05309,-0.203502 -0.05088,-0.0929 -0.148203,-0.150415 -0.09512,-0.05751 -0.227835,-0.05751 -0.126083,0 -0.225622,0.05309 -0.09733,0.05088 -0.154839,0.141567 -0.0553,0.09069 -0.0553,0.21235 h 0.17917 q 0,-0.101751 0.07521,-0.168111 0.07521,-0.06857 0.183595,-0.06857 0.07742,0 0.128295,0.03097 0.05309,0.03097 0.07963,0.08848 0.02654,0.0553 0.02654,0.128295 0,0.0553 -0.02212,0.103962 -0.01991,0.04866 -0.05972,0.08627 -0.03982,0.03539 -0.09733,0.05751 -0.05751,0.01991 -0.132719,0.01991 z m 0.06636,0.785254 q 0.139355,0 0.247742,-0.05309 0.108387,-0.05309 0.170323,-0.150415 0.06414,-0.09733 0.06414,-0.227835 0,-0.115023 -0.04424,-0.196866 -0.04202,-0.08184 -0.119447,-0.132719 -0.07521,-0.05309 -0.174747,-0.07742 -0.09733,-0.02433 -0.210138,-0.02433 v 0.121659 q 0.07521,0 0.139355,0.0177 0.06415,0.0177 0.112811,0.0553 0.04866,0.03539 0.07521,0.09069 0.02875,0.05309 0.02875,0.123872 0,0.08406 -0.03539,0.145991 -0.03539,0.06193 -0.101751,0.09733 -0.06415,0.03318 -0.152627,0.03318 -0.08848,0 -0.157051,-0.03318 -0.06857,-0.03318 -0.108387,-0.09069 -0.03761,-0.05751 -0.03761,-0.130508 h -0.19023 q 0,0.09069 0.03539,0.170323 0.03539,0.07742 0.09954,0.137143 0.06415,0.05751 0.154839,0.09069 0.09069,0.03318 0.203502,0.03318 z"
         id="path6422"
         style="stroke-width:0.139338" />
      <path
         d="m 51.729988,57.779372 h 1.178988 v -0.165899 h -0.316314 -0.03761 -0.515393 l 0.437973,-0.654747 v 0.716682 0.02434 0.389309 h 0.188019 v -1.548389 h -0.07742 z"
         id="path6424"
         style="stroke-width:0.139338" />
      <path
         d="m 45.11639,61.987037 q 0,-0.154839 -0.05972,-0.272074 -0.05973,-0.117235 -0.165899,-0.183595 -0.103963,-0.06636 -0.236682,-0.06636 -0.05751,0 -0.117236,0.01548 -0.05751,0.01327 -0.112811,0.04203 l 0.103964,-0.409217 h 0.583964 v -0.165899 h -0.729955 l -0.203503,0.825071 q 0.07963,-0.0553 0.139355,-0.08406 0.06194,-0.03097 0.121659,-0.04203 0.06194,-0.01327 0.134931,-0.01327 0.09954,0 0.176959,0.04424 0.07963,0.04424 0.123871,0.123871 0.04646,0.07963 0.04646,0.185807 0,0.106175 -0.04203,0.185806 -0.03982,0.07963 -0.117235,0.123872 -0.07742,0.04424 -0.188019,0.04424 -0.08405,0 -0.161475,-0.03539 -0.07742,-0.0376 -0.137143,-0.09512 -0.05751,-0.05973 -0.0929,-0.126083 l -0.159263,0.108387 q 0.05088,0.08848 0.123871,0.163687 0.07521,0.073 0.179171,0.117235 0.106175,0.04424 0.247742,0.04424 0.112811,0 0.210139,-0.03318 0.09733,-0.03318 0.172535,-0.09954 0.07521,-0.06636 0.117235,-0.165898 0.04202,-0.09954 0.04202,-0.232259 z"
         id="path6426"
         style="stroke-width:0.139338" />
      <path
         d="m 49.70799,68.775952 q 0,-0.106175 0.04424,-0.188018 0.04645,-0.08406 0.123872,-0.130508 0.07963,-0.04645 0.17917,-0.04645 0.09954,0 0.176959,0.04645 0.07963,0.04646 0.123871,0.130508 0.04646,0.08184 0.04646,0.188018 0,0.106175 -0.04646,0.188019 -0.04424,0.07963 -0.123871,0.126083 -0.07742,0.04646 -0.176959,0.04646 -0.09954,0 -0.17917,-0.04646 -0.07742,-0.04645 -0.123872,-0.126083 -0.04424,-0.08184 -0.04424,-0.188019 z m 0.440185,-1.039633 -0.522029,0.718895 q -0.04424,0.06194 -0.07078,0.143779 -0.02654,0.08184 -0.02654,0.176959 0,0.159263 0.06857,0.27871 0.07078,0.119447 0.190231,0.185807 0.119447,0.06636 0.26765,0.06636 0.150415,0 0.26765,-0.06636 0.119447,-0.06636 0.188019,-0.185807 0.07078,-0.119447 0.07078,-0.27871 0,-0.106175 -0.03539,-0.196866 -0.03539,-0.0929 -0.09954,-0.161475 -0.06193,-0.06857 -0.145991,-0.106176 -0.08184,-0.03761 -0.176959,-0.03761 -0.07521,0 -0.134931,0.0177 -0.05751,0.0177 -0.101751,0.073 l 0.01327,0.01106 0.484425,-0.639264 z"
         id="path6428"
         style="stroke-width:0.139338" />
      <path
         d="m 57.989331,62.987987 h 0.802951 l -0.65696,1.371431 h 0.196867 l 0.741015,-1.54839 h -1.083873 z"
         id="path6430"
         style="stroke-width:0.139338" />
      <path
         d="m 62.897739,63.850434 q 0,0.09069 0.03097,0.163687 0.03097,0.07078 0.08627,0.121659 0.05751,0.05088 0.134931,0.07742 0.07963,0.02654 0.174746,0.02654 0.09512,0 0.172535,-0.02654 0.07963,-0.02654 0.134931,-0.07742 0.05751,-0.05088 0.08848,-0.121659 0.03097,-0.073 0.03097,-0.163687 0,-0.110599 -0.05751,-0.199079 -0.0553,-0.09069 -0.152627,-0.143779 -0.09511,-0.05309 -0.216775,-0.05309 -0.121659,0 -0.218986,0.05309 -0.09511,0.05309 -0.152627,0.143779 -0.0553,0.08848 -0.0553,0.199079 z m 0.179171,0.02212 q 0,-0.073 0.03097,-0.130507 0.03318,-0.05751 0.08848,-0.08848 0.05751,-0.03318 0.128295,-0.03318 0.073,0 0.128296,0.03318 0.0553,0.03097 0.08627,0.08848 0.03318,0.05751 0.03318,0.130507 0,0.07299 -0.03539,0.128295 -0.03318,0.0553 -0.09069,0.08627 -0.0553,0.03097 -0.121659,0.03097 -0.06636,0 -0.123871,-0.03097 -0.0553,-0.03097 -0.09069,-0.08627 -0.03318,-0.0553 -0.03318,-0.128295 z m -0.23447,0.732167 q 0,0.09069 0.03539,0.170322 0.03761,0.07963 0.101752,0.141567 0.06636,0.06194 0.152627,0.09733 0.08848,0.03318 0.192442,0.03318 0.103964,0 0.190231,-0.03318 0.08848,-0.03539 0.152627,-0.09733 0.06636,-0.06194 0.101751,-0.141567 0.03761,-0.07963 0.03761,-0.170322 0,-0.106176 -0.03982,-0.188019 -0.03761,-0.08406 -0.106175,-0.139355 -0.06636,-0.05751 -0.154839,-0.08627 -0.08627,-0.02875 -0.181383,-0.02875 -0.09511,0 -0.183595,0.02875 -0.08627,0.02875 -0.154839,0.08627 -0.06636,0.0553 -0.106175,0.139355 -0.03761,0.08184 -0.03761,0.188019 z m 0.17917,-0.02212 q 0,-0.08406 0.04202,-0.150415 0.04424,-0.06857 0.112811,-0.108387 0.07078,-0.03982 0.148203,-0.03982 0.07742,0 0.145991,0.03982 0.07078,0.03981 0.112811,0.108387 0.04424,0.06636 0.04424,0.150415 0,0.09512 -0.04424,0.161475 -0.04202,0.06636 -0.112811,0.101751 -0.06857,0.03539 -0.145991,0.03539 -0.07742,0 -0.148203,-0.03539 -0.06857,-0.03539 -0.112811,-0.101751 -0.04202,-0.06636 -0.04202,-0.161475 z"
         id="path6432"
         style="stroke-width:0.139338" />
      <path
         d="m 67.750677,59.19319 q 0,0.106175 -0.04645,0.188019 -0.04424,0.08184 -0.123871,0.130507 -0.07742,0.04645 -0.176959,0.04645 -0.09954,0 -0.179171,-0.04645 -0.07742,-0.04866 -0.123871,-0.130507 -0.04424,-0.08184 -0.04424,-0.188019 0,-0.106175 0.04424,-0.185807 0.04646,-0.08184 0.123871,-0.128295 0.07963,-0.04645 0.179171,-0.04645 0.09954,0 0.176959,0.04645 0.07963,0.04646 0.123871,0.128295 0.04645,0.07963 0.04645,0.185807 z m -0.440185,1.039633 0.522029,-0.718895 q 0.04424,-0.06194 0.07078,-0.143779 0.02654,-0.08184 0.02654,-0.176959 0,-0.159263 -0.07078,-0.27871 -0.06858,-0.119447 -0.188018,-0.185807 -0.117235,-0.06636 -0.26765,-0.06636 -0.148203,0 -0.267651,0.06636 -0.119447,0.06636 -0.19023,0.185807 -0.06857,0.119447 -0.06857,0.27871 0,0.106175 0.03539,0.199078 0.03539,0.09069 0.09733,0.159263 0.06414,0.06857 0.145991,0.106176 0.08405,0.0376 0.179171,0.0376 0.07521,0 0.132719,-0.0177 0.05973,-0.0177 0.103963,-0.07299 l -0.01327,-0.01106 -0.484425,0.639264 z"
         id="path6434"
         style="stroke-width:0.139338" />
      <path
         d="m 60.184091,50.913985 0.342857,-0.101751 v 1.344887 h 0.188019 v -1.57051 l -0.530876,0.13272 z"
         id="path6436"
         style="stroke-width:0.139338" />
      <path
         d="m 61.279025,51.382926 q 0,-0.134931 0.02654,-0.247742 0.02654,-0.115023 0.07742,-0.196867 0.05088,-0.08406 0.121659,-0.128295 0.073,-0.04645 0.161475,-0.04645 0.09069,0 0.161474,0.04645 0.07078,0.04424 0.121659,0.128295 0.05088,0.08184 0.07742,0.196867 0.02654,0.112811 0.02654,0.247742 0,0.134931 -0.02654,0.249954 -0.02654,0.112812 -0.07742,0.196867 -0.05088,0.08184 -0.121659,0.128295 -0.07078,0.04424 -0.161474,0.04424 -0.08848,0 -0.161475,-0.04424 -0.07078,-0.04645 -0.121659,-0.128295 -0.05088,-0.08406 -0.07742,-0.196867 -0.02654,-0.115023 -0.02654,-0.249954 z m -0.188019,0 q 0,0.232258 0.07299,0.411429 0.073,0.179171 0.201291,0.283134 0.130507,0.101752 0.30083,0.101752 0.170322,0 0.298617,-0.101752 0.130507,-0.103963 0.203503,-0.283134 0.07299,-0.179171 0.07299,-0.411429 0,-0.232258 -0.07299,-0.411429 -0.073,-0.179171 -0.203503,-0.280922 -0.128295,-0.103964 -0.298617,-0.103964 -0.170323,0 -0.30083,0.103964 -0.128295,0.101751 -0.201291,0.280922 -0.07299,0.179171 -0.07299,0.411429 z"
         id="path6438"
         style="stroke-width:0.139338" />
      <path
         d="m 59.487395,55.70616 0.342858,-0.101751 v 1.344887 h 0.188019 v -1.57051 l -0.530877,0.13272 z"
         id="path6440"
         style="stroke-width:0.139338" />
      <path
         d="m 60.482791,55.70616 0.342857,-0.101751 v 1.344887 h 0.188019 v -1.57051 l -0.530876,0.13272 z"
         id="path6442"
         style="stroke-width:0.139338" />
    </g>
    <text
       xml:space="preserve"
       transform="matrix(0.26458333,0,0,0.26458333,33.021152,48.483922)"
       id="text6406"
       style="font-style:normal;font-variant:normal;font-weight:normal;font-stretch:normal;font-family:Jost;-inkscape-font-specification:Jost;white-space:pre;shape-inside:url(#rect6408);fill:#e30303;fill-opacity:1;stroke:none;stroke-width:0.755906;stroke-linecap:round;stroke-linejoin:bevel;stroke-dasharray:none;stroke-opacity:1" />
    <path
       style="fill:none;fill-opacity:1;stroke:#000000;stroke-width:0.2;stroke-linecap:round;stroke-linejoin:bevel;stroke-dasharray:none;stroke-opacity:1;marker-end:url(#Dot)"
       d="m 55.460248,50.397709 0.158129,0.195214"
       id="path6467"
       sodipodi:nodetypes="cc" />
    <path
       style="fill:none;fill-opacity:1;stroke:#000000;stroke-width:0.2;stroke-linecap:round;stroke-linejoin:bevel;stroke-dasharray:none;stroke-opacity:1;marker-end:url(#Dot-3)"
       d="m 51.996303,61.814851 0.158129,0.195214"
       id="path6467-0"
       sodipodi:nodetypes="cc" />
  </g>
</svg>
